<svg width="20" height="21" viewBox="0 0 20 21" fill="none" xmlns="http://www.w3.org/2000/svg">
<path d="M16.6664 15.2839C16.5783 15.9965 16.5394 16.3052 16.2103 16.9998L11.1576 18.0437C11.2737 17.293 11.4294 16.7143 11.681 16.3669L16.6664 15.2839ZM9.6283 10.3699L11.139 10.0417V5.27124C11.7015 4.63989 12.047 4.35619 12.726 3.9978V9.69702L16.6664 8.84253C16.5783 9.55501 16.5394 9.86376 16.2103 10.5583L12.726 11.2947V12.8972L16.6664 12.0632C16.5783 12.7758 16.5394 13.0845 16.2103 13.7791L12.726 14.4988V14.5144L11.139 14.8425V11.6306L9.6283 11.95V13.9734L9.60193 13.9783C9.25465 14.5872 8.76489 15.319 8.29236 15.9031L3.33337 16.8474C3.37784 16.2095 3.47075 15.8503 3.75916 15.2078L8.04138 14.2791V12.2849L4.07263 13.1248C4.1171 12.4866 4.20986 12.1269 4.49841 11.4841L8.04138 10.7136V4.38354C8.60383 3.7522 8.94942 3.46848 9.6283 3.11011V10.3699Z" fill="#1BBAB9"/>
</svg>
