<svg width="30" height="31" viewBox="0 0 30 31" fill="none" xmlns="http://www.w3.org/2000/svg">
<path fill-rule="evenodd" clip-rule="evenodd" d="M14.2074 28.1827C14.3788 28.4555 14.6788 28.6218 15.0014 28.6218C15.324 28.6218 15.624 28.4555 15.7954 28.1827C18.3329 24.1368 26.18 11.6247 27.9811 8.75283C28.2008 8.40207 28.1647 7.94859 27.8916 7.63677C26.8589 6.45802 24.3813 3.62897 23.5463 2.67549C23.3682 2.47301 23.1111 2.35608 22.8411 2.35608C20.5277 2.35608 9.47519 2.35608 7.16177 2.35608C6.89177 2.35608 6.63467 2.47301 6.45653 2.67549C5.62149 3.62897 3.14397 6.45802 2.11121 7.63677C1.83817 7.94859 1.80205 8.40207 2.02183 8.75283C3.82288 11.6247 11.6699 24.1368 14.2074 28.1827Z" fill="#DFEAFA"/>
<path fill-rule="evenodd" clip-rule="evenodd" d="M1.91913 8.17039H28.096C28.0578 8.04535 27.9934 7.92715 27.9034 7.82401C26.8703 6.64531 24.391 3.81573 23.5556 2.86213C23.378 2.6589 23.1203 2.5426 22.8502 2.5426C20.5366 2.5426 9.47856 2.5426 7.1649 2.5426C6.89472 2.5426 6.63714 2.6589 6.45954 2.86213C5.6241 3.81573 3.14474 6.64531 2.11172 7.82401C2.02168 7.92715 1.95727 8.04535 1.91913 8.17039Z" fill="white"/>
<path fill-rule="evenodd" clip-rule="evenodd" d="M11.2557 8.17039L15.0076 2.5426H7.16485C7.07545 2.5426 6.98731 2.55511 6.90289 2.58012L11.2557 8.17039ZM15.0076 2.5426L18.7594 8.17039L23.1122 2.58012C23.0278 2.55511 22.9396 2.5426 22.8502 2.5426H15.0076Z" fill="#DFEAFA"/>
<path fill-rule="evenodd" clip-rule="evenodd" d="M18.7594 8.17039H11.2557L15.0076 2.5426L18.7594 8.17039Z" fill="white"/>
<path fill-rule="evenodd" clip-rule="evenodd" d="M15.0076 28.8132L11.2557 8.17041H18.7594L15.0076 28.8132Z" fill="white"/>
<path fill-rule="evenodd" clip-rule="evenodd" d="M7.50246 25.0725L8.24286 26.2085L9.37878 26.9488L8.24286 27.6886L7.50246 28.8245L6.76278 27.6886L5.62683 26.9488L6.76278 26.2085L7.50246 25.0725Z" fill="#DFEAFA"/>
<path fill-rule="evenodd" clip-rule="evenodd" d="M3.75249 17.5725L4.49288 18.7085L5.62881 19.4488L4.49288 20.1886L3.75249 21.3245L3.01276 20.1886L1.87683 19.4488L3.01276 18.7085L3.75249 17.5725Z" fill="#DFEAFA"/>
<path fill-rule="evenodd" clip-rule="evenodd" d="M25.6271 20.6973L26.3675 21.8332L27.5034 22.5736L26.3675 23.3133L25.6271 24.4492L24.8874 23.3133L23.7515 22.5736L24.8874 21.8332L25.6271 20.6973Z" fill="#DFEAFA"/>
<path d="M11.5669 24.6488C11.9123 24.6488 12.1922 24.3689 12.1922 24.0235C12.1922 23.6782 11.9123 23.3982 11.5669 23.3982C11.2215 23.3982 10.9416 23.6782 10.9416 24.0235C10.9416 24.3689 11.2215 24.6488 11.5669 24.6488Z" fill="#3451C1"/>
<path fill-rule="evenodd" clip-rule="evenodd" d="M2.6695 8.79565H10.7379L14.2565 27.2668L13.1585 25.5165C12.9753 25.2239 12.5888 25.1358 12.2968 25.3189C12.0041 25.5022 11.916 25.8886 12.0992 26.1806C12.0992 26.1806 13.2761 28.0572 13.6831 28.7062C13.9689 29.1621 14.4691 29.4385 15.0076 29.4385C15.5459 29.4385 16.0462 29.1621 16.3319 28.7062L28.5224 9.27277C28.8895 8.68813 28.8288 7.93147 28.3736 7.41187C27.3406 6.23313 24.8618 3.40359 24.0264 2.44999C23.7294 2.1117 23.3011 1.91724 22.8502 1.91724H7.1649C6.714 1.91724 6.28566 2.1117 5.98866 2.44999C5.15324 3.40359 2.67451 6.23313 1.64149 7.41187C1.18626 7.93147 1.12561 8.68813 1.49266 9.27277L10.0313 22.8846C10.2151 23.1772 10.601 23.2654 10.8936 23.0822C11.1856 22.899 11.2744 22.5126 11.0912 22.2205L2.6695 8.79565ZM26.8278 7.54507L23.2329 3.44237L20.0388 7.54507H24.3872C24.7324 7.54507 25.0126 7.82521 25.0126 8.17039C25.0126 8.51551 24.7324 8.79565 24.3872 8.79565H19.2772L15.7585 27.2668L27.3456 8.79565H26.2631C25.918 8.79565 25.6379 8.51551 25.6379 8.17039C25.6379 7.82521 25.918 7.54507 26.2631 7.54507H26.8278ZM18.004 8.79565H12.011L15.0076 24.526L18.004 8.79565ZM3.18726 7.54507H9.97626L6.78216 3.44237L3.18726 7.54507ZM12.4244 7.54507H17.5907L15.0076 3.66999L12.4244 7.54507ZM21.8616 3.16786H16.1762L18.7988 7.10167L21.8616 3.16786ZM13.8388 3.16786H8.15352L11.2163 7.10167L13.8388 3.16786Z" fill="#3451C1"/>
<path fill-rule="evenodd" clip-rule="evenodd" d="M8.02633 24.7311C7.91119 24.554 7.71439 24.4474 7.50247 24.4474C7.29121 24.4474 7.09447 24.554 6.97861 24.7311L6.31063 25.7564L5.28526 26.4251C5.10822 26.5402 5.00095 26.737 5.00095 26.949C5.00095 27.1602 5.10822 27.357 5.28526 27.4728L6.31063 28.1408L6.97861 29.1662C7.09447 29.3432 7.29121 29.4505 7.50247 29.4505C7.71439 29.4505 7.91119 29.3432 8.02633 29.1662L8.69503 28.1408L9.72037 27.4728C9.89743 27.357 10.004 27.1602 10.004 26.949C10.004 26.737 9.89743 26.5402 9.72037 26.4251L8.69503 25.7564L8.02633 24.7311ZM7.50247 26.2177L7.71901 26.5501C7.76641 26.6225 7.82893 26.685 7.90129 26.7324L8.23369 26.949L7.90129 27.1648C7.82893 27.2122 7.76641 27.2747 7.71901 27.3478L7.50247 27.6795L7.28659 27.3478C7.23925 27.2747 7.17673 27.2122 7.10365 27.1648L6.77197 26.949L7.10365 26.7324C7.17673 26.685 7.23925 26.6225 7.28659 26.5501L7.50247 26.2177Z" fill="#3451C1"/>
<path fill-rule="evenodd" clip-rule="evenodd" d="M4.27634 17.2311C4.16117 17.054 3.9644 16.9474 3.75248 16.9474C3.54122 16.9474 3.34444 17.054 3.22861 17.2311L2.56061 18.2564L1.53526 18.9251C1.35822 19.0402 1.25095 19.237 1.25095 19.449C1.25095 19.6602 1.35822 19.857 1.53526 19.9728L2.56061 20.6408L3.22861 21.6662C3.34444 21.8432 3.54122 21.9505 3.75248 21.9505C3.9644 21.9505 4.16117 21.8432 4.27634 21.6662L4.945 20.6408L5.97036 19.9728C6.14743 19.857 6.25399 19.6602 6.25399 19.449C6.25399 19.237 6.14743 19.0402 5.97036 18.9251L4.945 18.2564L4.27634 17.2311ZM3.75248 18.7177L3.969 19.0501C4.01639 19.1225 4.07891 19.185 4.1513 19.2324L4.48366 19.449L4.1513 19.6648C4.07891 19.7122 4.01639 19.7747 3.969 19.8478L3.75248 20.1795L3.53662 19.8478C3.48923 19.7747 3.42671 19.7122 3.35366 19.6648L3.02196 19.449L3.35366 19.2324C3.42671 19.185 3.48923 19.1225 3.53662 19.0501L3.75248 18.7177Z" fill="#3451C1"/>
<path fill-rule="evenodd" clip-rule="evenodd" d="M26.151 20.3557C26.0358 20.1786 25.839 20.072 25.6271 20.072C25.4159 20.072 25.2191 20.1786 25.1033 20.3557L24.4353 21.381L23.41 22.0497C23.2329 22.1649 23.1256 22.3617 23.1256 22.5736C23.1256 22.7849 23.2329 22.9816 23.41 23.0975L24.4353 23.7654L25.1033 24.7908C25.2191 24.9678 25.4159 25.0751 25.6271 25.0751C25.839 25.0751 26.0358 24.9678 26.151 24.7908L26.8197 23.7654L27.845 23.0975C28.0221 22.9816 28.1287 22.7849 28.1287 22.5736C28.1287 22.3617 28.0221 22.1649 27.845 22.0497L26.8197 21.381L26.151 20.3557ZM25.6271 21.8424L25.8437 22.1747C25.8911 22.2471 25.9536 22.3097 26.026 22.3571L26.3583 22.5736L26.026 22.7894C25.9536 22.8368 25.8911 22.8993 25.8437 22.9724L25.6271 23.3041L25.4113 22.9724C25.3639 22.8993 25.3014 22.8368 25.2283 22.7894L24.8966 22.5736L25.2283 22.3571C25.3014 22.3097 25.3639 22.2471 25.4113 22.1747L25.6271 21.8424Z" fill="#3451C1"/>
</svg>
