<svg width="61" height="60" viewBox="0 0 61 60" fill="none" xmlns="http://www.w3.org/2000/svg">
<path d="M0.5 30C0.5 13.4315 13.9315 0 30.5 0C47.0685 0 60.5 13.4315 60.5 30C60.5 46.5685 47.0685 60 30.5 60C13.9315 60 0.5 46.5685 0.5 30Z" fill="#EEF5FF"/>
<g clip-path="url(#clip0_22_2279)">
<g clip-path="url(#clip1_22_2279)">
<path d="M41.2812 23.1376H40.8125V22.2001C40.8125 19.6154 38.7097 17.5126 36.125 17.5126H24.875C22.2903 17.5126 20.1875 19.6154 20.1875 22.2001V23.1376H19.7188C18.4259 23.1376 17.375 24.1894 17.375 25.4813V27.8251C17.375 28.3426 17.7941 28.7626 18.3125 28.7626C18.8309 28.7626 19.25 28.3426 19.25 27.8251V25.4813C19.25 25.2226 19.4609 25.0126 19.7188 25.0126H20.1875V34.3876C20.1875 35.9128 20.9309 37.2572 22.0625 38.1132V40.0126C22.0625 41.0466 22.9034 41.8876 23.9375 41.8876H25.8125C26.8465 41.8876 27.6875 41.0466 27.6875 40.0126V39.0751H33.3125V40.0126C33.3125 41.0466 34.1535 41.8876 35.1875 41.8876H37.0625C38.0965 41.8876 38.9375 41.0466 38.9375 40.0126V38.1132C40.0691 37.2563 40.8125 35.9119 40.8125 34.3876V25.0126H41.2812C41.5391 25.0126 41.75 25.2226 41.75 25.4813V27.8251C41.75 28.3426 42.1691 28.7626 42.6875 28.7626C43.2059 28.7626 43.625 28.3426 43.625 27.8251V25.4813C43.625 24.1894 42.5741 23.1376 41.2812 23.1376ZM22.0625 23.1376H38.9375V30.0422C38.089 30.4266 37.161 30.6376 36.2291 30.6376H24.7709C23.84 30.6376 22.9109 30.4266 22.0625 30.0422V23.1376ZM24.875 19.3876H36.125C37.3456 19.3876 38.3769 20.1741 38.765 21.2626H22.235C22.6231 20.1741 23.6544 19.3876 24.875 19.3876ZM25.8125 40.0126H23.9375V38.9803C24.2403 39.0422 24.5544 39.0751 24.875 39.0751H25.8125V40.0126ZM37.0625 40.0126H35.1875V39.0751H36.125C36.4456 39.0751 36.7597 39.0422 37.0625 38.9803V40.0126ZM36.125 37.2001H24.875C23.3244 37.2001 22.0625 35.9382 22.0625 34.3876V32.0569C22.9344 32.3513 23.8522 32.5126 24.7709 32.5126H36.23C37.1488 32.5126 38.0665 32.3513 38.9384 32.0569V34.3876C38.9384 35.9382 37.6756 37.2001 36.125 37.2001Z" fill="#3451C1"/>
<path d="M24.875 35.3251C25.3928 35.3251 25.8125 34.9054 25.8125 34.3876C25.8125 33.8698 25.3928 33.4501 24.875 33.4501C24.3572 33.4501 23.9375 33.8698 23.9375 34.3876C23.9375 34.9054 24.3572 35.3251 24.875 35.3251Z" fill="#3451C1"/>
<path d="M36.125 35.3251C36.6428 35.3251 37.0625 34.9054 37.0625 34.3876C37.0625 33.8698 36.6428 33.4501 36.125 33.4501C35.6072 33.4501 35.1875 33.8698 35.1875 34.3876C35.1875 34.9054 35.6072 35.3251 36.125 35.3251Z" fill="#3451C1"/>
</g>
</g>
<defs>
<clipPath id="clip0_22_2279">
<rect width="30" height="30.75" fill="white" transform="translate(15.5 14.625)"/>
</clipPath>
<clipPath id="clip1_22_2279">
<rect width="30" height="30.75" fill="white" transform="translate(15.5 14.625)"/>
</clipPath>
</defs>
</svg>
