<svg width="61" height="60" viewBox="0 0 61 60" fill="none" xmlns="http://www.w3.org/2000/svg">
<path d="M0.5 30C0.5 13.4315 13.9315 0 30.5 0C47.0685 0 60.5 13.4315 60.5 30C60.5 46.5685 47.0685 60 30.5 60C13.9315 60 0.5 46.5685 0.5 30Z" fill="#EEF5FF"/>
<g clip-path="url(#clip0_22_2287)">
<g clip-path="url(#clip1_22_2287)">
<g clip-path="url(#clip2_22_2287)">
<mask id="mask0_22_2287" style="mask-type:luminance" maskUnits="userSpaceOnUse" x="15" y="14" width="31" height="31">
<path d="M45.5 14.7001H15.5V44.7001H45.5V14.7001Z" fill="white"/>
</mask>
<g mask="url(#mask0_22_2287)">
<path d="M44.6211 42.8837H43.3479L40.9541 38.0962C40.8052 37.7984 40.5009 37.6103 40.1679 37.6103H34.4631L30.3589 25.3616L39.5275 22.2966C40.0525 22.1211 40.2875 21.5081 40.0116 21.0263C37.647 16.8967 32.7836 14.7391 27.3014 16.2174L27.0145 15.359C26.8606 14.8987 26.3628 14.6501 25.9023 14.8041C25.4419 14.958 25.1934 15.4559 25.3474 15.9163L25.6343 16.7747C20.3715 18.8878 17.7762 23.5326 18.3713 28.2604C18.4408 28.8128 18.9983 29.159 19.522 28.9843L28.6918 25.919L32.6092 37.6103H24.0452L16.9511 32.5026C16.5571 32.219 16.0078 32.3083 15.7242 32.7023C15.4406 33.0962 15.5301 33.6455 15.9239 33.9291L22.7289 38.8287L21.4223 42.8838H16.3789C15.8935 42.8838 15.5 43.2773 15.5 43.7627C15.5 44.2481 15.8935 44.6416 16.3789 44.6416H44.6211C45.1065 44.6416 45.5 44.2481 45.5 43.7627C45.5 43.2773 45.1065 42.8837 44.6211 42.8837ZM27.0165 18.1385C27.0163 18.1385 27.0166 18.1384 27.0165 18.1385C27.0223 18.1393 28.0605 17.6548 29.9087 19.4506C30.8637 20.3786 31.7076 21.6143 32.2615 22.8721L25.6732 25.0745C24.9761 22.1023 25.5654 18.6242 27.0165 18.1385ZM37.8914 20.9901L33.9346 22.3128C33.1762 20.5314 31.8691 18.6896 30.3633 17.516C33.3445 17.4129 36.0992 18.5783 37.8914 20.9901ZM23.969 19.6533C23.4678 21.51 23.5393 23.7677 24.0014 25.6334L20.0434 26.9566C20.0254 24.0245 21.4612 21.4079 23.969 19.6533ZM39.6247 39.3681L41.3826 42.8837H36.2301L35.0521 39.3681H39.6247ZM24.4019 39.3681H33.1983L34.3762 42.8837H23.2691L24.4019 39.3681Z" fill="#3451C1"/>
</g>
</g>
</g>
</g>
<defs>
<clipPath id="clip0_22_2287">
<rect width="30" height="30.75" fill="white" transform="translate(15.5 14.625)"/>
</clipPath>
<clipPath id="clip1_22_2287">
<rect width="30" height="30.75" fill="white" transform="translate(15.5 14.625)"/>
</clipPath>
<clipPath id="clip2_22_2287">
<rect width="30" height="30.75" fill="white" transform="translate(15.5 14.625)"/>
</clipPath>
</defs>
</svg>
