<svg width="61" height="60" viewBox="0 0 61 60" fill="none" xmlns="http://www.w3.org/2000/svg">
<path d="M0.5 30C0.5 13.4315 13.9315 0 30.5 0C47.0685 0 60.5 13.4315 60.5 30C60.5 46.5685 47.0685 60 30.5 60C13.9315 60 0.5 46.5685 0.5 30Z" fill="#EEF5FF"/>
<g clip-path="url(#clip0_22_2273)">
<g clip-path="url(#clip1_22_2273)">
<g clip-path="url(#clip2_22_2273)">
<path d="M44.2503 41.2089H43.9377V38.3964C43.9371 37.8164 43.7064 37.2605 43.2963 36.8504C42.8862 36.4403 42.3302 36.2096 41.7502 36.2089H41.4378V29.3339H41.7502C42.3302 29.3333 42.8862 29.1026 43.2963 28.6925C43.7064 28.2824 43.9371 27.7264 43.9377 27.1464V22.9927C43.9241 22.5589 43.7876 22.1378 43.5442 21.7785C43.3008 21.4192 42.9605 21.1363 42.5628 20.9627L31.3128 16.4627C30.7883 16.2695 30.2122 16.2695 29.6877 16.4627L18.4377 20.9627C18.0399 21.1362 17.6995 21.419 17.4561 21.7784C17.2126 22.1378 17.0763 22.5588 17.0627 22.9927V27.1464C17.0634 27.7264 17.2941 28.2824 17.7042 28.6925C18.1143 29.1026 18.6703 29.3333 19.2502 29.3339H19.5627V36.2089H19.2502C18.6703 36.2096 18.1143 36.4403 17.7042 36.8504C17.2941 37.2605 17.0634 37.8164 17.0627 38.3964V41.2089H16.7502C16.5016 41.2089 16.2631 41.3077 16.0873 41.4835C15.9115 41.6593 15.8127 41.8978 15.8127 42.1464C15.8127 42.395 15.9115 42.6335 16.0873 42.8093C16.2631 42.9851 16.5016 43.0839 16.7502 43.0839H44.2503C44.4989 43.0839 44.7373 42.9851 44.9131 42.8093C45.089 42.6335 45.1878 42.395 45.1878 42.1464C45.1878 41.8978 45.089 41.6593 44.9131 41.4835C44.7373 41.3077 44.4989 41.2089 44.2503 41.2089ZM19.2502 27.4589C19.1677 27.458 19.0887 27.4247 19.0303 27.3663C18.972 27.3079 18.9387 27.229 18.9377 27.1464V22.9927C18.9496 22.9334 18.973 22.877 19.0067 22.8269C19.0404 22.7766 19.0836 22.7336 19.134 22.7002L30.3753 18.2002C30.4164 18.1917 30.4583 18.1879 30.5002 18.1889C30.5422 18.1878 30.5842 18.1916 30.6252 18.2002L41.8752 22.7002C41.9757 22.7676 42.0456 22.8717 42.0702 22.9901V27.1464C42.0693 27.229 42.0361 27.3079 41.9776 27.3663C41.9193 27.4247 41.8403 27.458 41.7577 27.4589H19.2502ZM39.5628 29.3339V36.2089H36.4377V29.3339H39.5628ZM34.5627 29.3339V36.2089H31.4377V29.3339H34.5627ZM29.5627 29.3339V36.2089H26.4378V29.3339H29.5627ZM24.5628 29.3339V36.2089H21.4377V29.3339H24.5628ZM42.0627 41.2089H18.9377V38.3964C18.9377 38.3135 18.9707 38.234 19.0293 38.1755C19.0879 38.1168 19.1674 38.0839 19.2502 38.0839H41.7502C41.8331 38.0839 41.9126 38.1168 41.9712 38.1755C42.0298 38.234 42.0627 38.3135 42.0627 38.3964V41.2089ZM30.5002 20.5839C29.9439 20.5839 29.4002 20.7489 28.9377 21.0579C28.4752 21.3669 28.1147 21.8062 27.9019 22.3201C27.689 22.8341 27.6333 23.3996 27.7418 23.9451C27.8503 24.4907 28.1181 24.9918 28.5115 25.3852C28.9048 25.7785 29.406 26.0464 29.9515 26.1549C30.4971 26.2634 31.0626 26.2077 31.5765 25.9949C32.0905 25.7819 32.5297 25.4215 32.8387 24.959C33.1478 24.4964 33.3127 23.9527 33.3127 23.3964C33.3118 22.6508 33.0151 21.936 32.4879 21.4088C31.9606 20.8815 31.2459 20.5849 30.5002 20.5839ZM30.5002 24.3339C30.3148 24.3339 30.1336 24.2789 29.9794 24.1759C29.8252 24.0729 29.7051 23.9265 29.6341 23.7552C29.5632 23.5839 29.5446 23.3954 29.5807 23.2135C29.617 23.0317 29.7062 22.8646 29.8373 22.7335C29.9685 22.6024 30.1355 22.5131 30.3174 22.4769C30.4992 22.4408 30.6877 22.4593 30.859 22.5303C31.0303 22.6013 31.1767 22.7214 31.2798 22.8755C31.3827 23.0297 31.4377 23.211 31.4377 23.3964C31.437 23.6449 31.3381 23.8829 31.1624 24.0586C30.9867 24.2342 30.7487 24.3332 30.5002 24.3339Z" fill="#3451C1"/>
</g>
</g>
</g>
<defs>
<clipPath id="clip0_22_2273">
<rect width="30" height="30.75" fill="white" transform="translate(15.5 14.625)"/>
</clipPath>
<clipPath id="clip1_22_2273">
<rect width="30" height="30.75" fill="white" transform="translate(15.5 14.625)"/>
</clipPath>
<clipPath id="clip2_22_2273">
<rect width="30" height="30.75" fill="white" transform="translate(15.5 14.625)"/>
</clipPath>
</defs>
</svg>
