<svg width="61" height="60" viewBox="0 0 61 60" fill="none" xmlns="http://www.w3.org/2000/svg">
<path d="M0.5 30C0.5 13.4315 13.9315 0 30.5 0C47.0685 0 60.5 13.4315 60.5 30C60.5 46.5685 47.0685 60 30.5 60C13.9315 60 0.5 46.5685 0.5 30Z" fill="#EEF5FF"/>
<g clip-path="url(#clip0_22_2297)">
<g clip-path="url(#clip1_22_2297)">
<g clip-path="url(#clip2_22_2297)">
<mask id="mask0_22_2297" style="mask-type:luminance" maskUnits="userSpaceOnUse" x="15" y="14" width="31" height="31">
<path d="M45.5 14.7001H15.5V44.7001H45.5V14.7001Z" fill="white"/>
</mask>
<g mask="url(#mask0_22_2297)">
<path d="M39.4356 20.2667H37.9707V16.7503C37.9707 16.0942 37.6533 15.473 37.1217 15.0886C36.5901 14.7041 35.9007 14.5972 35.2776 14.8028L20.922 19.5375C20.0796 19.8154 19.5137 20.5981 19.5137 21.4851V37.8641V42.6493C19.5137 43.7801 20.4337 44.7001 21.5645 44.7001H39.4356C40.5664 44.7001 41.4863 43.7801 41.4863 42.6493V22.3175C41.4863 21.1868 40.5664 20.2667 39.4356 20.2667ZM39.7285 42.6493C39.7285 42.8108 39.5971 42.9422 39.4356 42.9422H21.5645C21.4029 42.9422 21.2715 42.8108 21.2715 42.6493V36.9853V22.3175C21.2715 22.156 21.4029 22.0246 21.5645 22.0246H39.4356C39.5971 22.0246 39.7285 22.156 39.7285 22.3175V42.6493ZM35.8282 16.4721C35.9519 16.4313 36.0463 16.4802 36.0916 16.5129C36.1369 16.5457 36.213 16.62 36.213 16.7503V20.2668H24.3229L35.8282 16.4721Z" fill="#3451C1"/>
<path d="M24.6406 32.1892H25.706H36.3594C36.8448 32.1892 37.2383 31.7956 37.2383 31.3102C37.2383 30.8248 36.8448 30.4313 36.3594 30.4313H36.1048C35.7259 28.0057 33.8046 26.0843 31.3789 25.7055V25.2651C31.3789 24.7797 30.9854 24.3862 30.5 24.3862C30.0146 24.3862 29.6211 24.7797 29.6211 25.2651V25.7055C27.1954 26.0843 25.2741 28.0057 24.8953 30.4313H24.6406C24.1552 30.4313 23.7617 30.8248 23.7617 31.3102C23.7617 31.7956 24.1552 32.1892 24.6406 32.1892ZM30.5 27.3951C32.3567 27.3951 33.9157 28.6944 34.3157 30.4313H26.6843C27.0844 28.6944 28.6434 27.3951 30.5 27.3951Z" fill="#3451C1"/>
<path d="M24.9812 34.5637C24.4958 34.5637 24.1023 34.9572 24.1023 35.4426C24.1023 35.928 24.4958 36.3215 24.9812 36.3215H29.2C29.6854 36.3215 30.0789 35.928 30.0789 35.4426C30.0789 34.9572 29.6854 34.5637 29.2 34.5637H24.9812Z" fill="#3451C1"/>
<path d="M36.1396 38.0793H24.8604C24.375 38.0793 23.9814 38.4728 23.9814 38.9582C23.9814 39.4436 24.375 39.8371 24.8604 39.8371H36.1396C36.625 39.8371 37.0185 39.4436 37.0185 38.9582C37.0185 38.4728 36.625 38.0793 36.1396 38.0793Z" fill="#3451C1"/>
</g>
</g>
</g>
</g>
<defs>
<clipPath id="clip0_22_2297">
<rect width="30" height="30.75" fill="white" transform="translate(15.5 14.625)"/>
</clipPath>
<clipPath id="clip1_22_2297">
<rect width="30" height="30.75" fill="white" transform="translate(15.5 14.625)"/>
</clipPath>
<clipPath id="clip2_22_2297">
<rect width="30" height="30.75" fill="white" transform="translate(15.5 14.625)"/>
</clipPath>
</defs>
</svg>
