<svg width="61" height="60" viewBox="0 0 61 60" fill="none" xmlns="http://www.w3.org/2000/svg">
<rect x="0.5" width="60" height="60" rx="30" fill="#DFEAFA"/>
<g clip-path="url(#clip0_22_2189)">
<g clip-path="url(#clip1_22_2189)">
<g clip-path="url(#clip2_22_2189)">
<mask id="mask0_22_2189" style="mask-type:luminance" maskUnits="userSpaceOnUse" x="15" y="14" width="31" height="31">
<path d="M45.5 14.7001H15.5V44.7001H45.5V14.7001Z" fill="white"/>
</mask>
<g mask="url(#mask0_22_2189)">
<path d="M44.6211 41.9301C43.6511 41.9301 43.2135 41.7122 42.6595 41.4363C42.4308 41.3224 42.191 41.2033 41.9141 41.097L44.8827 33.2875C45.1137 32.6797 45.0754 31.9996 44.7774 31.4217C44.4795 30.8437 43.9478 30.418 43.3187 30.2536L41.2747 29.7195V23.589C41.2747 22.3024 40.2279 21.2557 38.9413 21.2557H34.9071V18.9873C34.9071 17.1815 33.4379 15.7123 31.632 15.7123H29.368C27.5622 15.7123 26.093 17.1815 26.093 18.9873V21.2557H22.0588C20.7721 21.2557 19.7254 22.3024 19.7254 23.589V29.7195L17.6813 30.2536C17.0522 30.418 16.5205 30.8437 16.2226 31.4217C15.9247 31.9996 15.8863 32.6797 16.1173 33.2875L19.0859 41.0971C18.8091 41.2033 18.5694 41.3225 18.3408 41.4364C17.7867 41.7122 17.349 41.9302 16.3789 41.9302C15.8935 41.9302 15.5 42.3237 15.5 42.8091C15.5 43.2945 15.8935 43.6879 16.3789 43.6879C17.7624 43.6879 18.4859 43.3277 19.1243 43.0099C19.6784 42.7341 20.116 42.5161 21.0862 42.5161C22.0563 42.5161 22.4939 42.734 23.0481 43.0099C23.6864 43.3277 24.4099 43.6879 25.7934 43.6879C27.1768 43.6879 27.9003 43.3277 28.5387 43.0099C29.0928 42.7341 29.5304 42.5161 30.5004 42.5161C31.4704 42.5161 31.908 42.734 32.4621 43.0099C33.1004 43.3277 33.8239 43.6879 35.2073 43.6879C36.5907 43.6879 37.3142 43.3277 37.9525 43.0099C38.5066 42.7341 38.9443 42.5161 39.9142 42.5161C40.8843 42.5161 41.3218 42.734 41.8759 43.0099C42.5142 43.3277 43.2377 43.6879 44.6212 43.6879C45.1066 43.6879 45.5001 43.2945 45.5001 42.8091C45.5001 42.3237 45.1065 41.9301 44.6211 41.9301ZM27.8508 18.9873C27.8508 18.1507 28.5314 17.4701 29.368 17.4701H31.632C32.4686 17.4701 33.1492 18.1507 33.1492 18.9873V21.2557H27.8508V18.9873ZM21.4832 23.589C21.4832 23.2717 21.7413 23.0135 22.0587 23.0135H38.9412C39.2586 23.0135 39.5167 23.2717 39.5167 23.589V29.2603L30.7221 26.9623C30.5765 26.9243 30.4234 26.9243 30.2778 26.9623L21.4831 29.2603L21.4832 23.589ZM37.169 41.4364C36.6149 41.7122 36.1773 41.9301 35.2073 41.9301C34.2373 41.9301 33.7997 41.7122 33.2457 41.4363C32.6073 41.1184 31.8839 40.7582 30.5004 40.7582C29.1169 40.7582 28.3935 41.1184 27.7551 41.4363C27.2011 41.7121 26.7634 41.9301 25.7934 41.9301C24.8233 41.9301 24.3856 41.7122 23.8316 41.4363C23.1933 41.1184 22.4697 40.7582 21.0862 40.7582C21.0014 40.7582 20.9192 40.7596 20.8392 40.7622L17.7604 32.6629C17.6865 32.4685 17.7441 32.3065 17.785 32.2271C17.8259 32.1478 17.9245 32.0069 18.1256 31.9543L30.5 28.7211L42.8743 31.9544C43.0755 32.0069 43.1741 32.1478 43.215 32.2271C43.2559 32.3065 43.3135 32.4685 43.2396 32.6629L40.1609 40.7623C40.081 40.7597 39.9989 40.7583 39.9142 40.7583C38.5308 40.7582 37.8073 41.1185 37.169 41.4364Z" fill="#3451C1"/>
<path d="M38.6259 33.219L30.7225 31.1539C30.5768 31.1159 30.4238 31.1159 30.2781 31.1539L22.3747 33.219C21.9051 33.3416 21.6238 33.8219 21.7465 34.2915C21.8692 34.7612 22.3495 35.0423 22.8191 34.9197L30.5003 32.9127L38.1815 34.9197C38.256 34.9392 38.3308 34.9485 38.4043 34.9485C38.7945 34.9485 39.1509 34.6867 39.254 34.2915C39.3768 33.8219 39.0955 33.3416 38.6259 33.219Z" fill="#3451C1"/>
</g>
</g>
</g>
</g>
<defs>
<clipPath id="clip0_22_2189">
<rect width="30" height="30.75" fill="white" transform="translate(15.5 14.625)"/>
</clipPath>
<clipPath id="clip1_22_2189">
<rect width="30" height="30.75" fill="white" transform="translate(15.5 14.625)"/>
</clipPath>
<clipPath id="clip2_22_2189">
<rect width="30" height="30.75" fill="white" transform="translate(15.5 14.625)"/>
</clipPath>
</defs>
</svg>
