<svg width="61" height="60" viewBox="0 0 61 60" fill="none" xmlns="http://www.w3.org/2000/svg">
<path d="M0.5 30C0.5 13.4315 13.9315 0 30.5 0C47.0685 0 60.5 13.4315 60.5 30C60.5 46.5685 47.0685 60 30.5 60C13.9315 60 0.5 46.5685 0.5 30Z" fill="#EEF5FF"/>
<g clip-path="url(#clip0_22_2267)">
<g clip-path="url(#clip1_22_2267)">
<g clip-path="url(#clip2_22_2267)">
<path d="M44.2503 40.6301H41.164V36.8252C41.9554 36.6234 42.6573 36.1643 43.1595 35.5202C43.6616 34.876 43.9354 34.0832 43.9377 33.2664V30.4289C43.9377 29.4509 43.5492 28.513 42.8577 27.8215C42.1662 27.1299 41.2282 26.7414 40.2502 26.7414C39.2722 26.7414 38.3344 27.1299 37.6428 27.8215C36.9513 28.513 36.5628 29.4509 36.5628 30.4289V33.2614C36.5652 34.0696 36.8335 34.8545 37.3261 35.4952C37.8188 36.1358 38.5086 36.5966 39.289 36.8064V40.6301H34.3128V21.5989C34.3128 18.5564 32.6565 16.8814 29.6465 16.8814H21.864C18.8452 16.8814 17.1827 18.5564 17.1827 21.5989V40.6301H16.7502C16.5016 40.6301 16.2631 40.7289 16.0873 40.9048C15.9115 41.0806 15.8127 41.319 15.8127 41.5676C15.8127 41.8163 15.9115 42.0548 16.0873 42.2306C16.2631 42.4064 16.5016 42.5051 16.7502 42.5051H40.154C40.179 42.5051 40.2015 42.5189 40.2265 42.5189C40.2515 42.5189 40.274 42.5064 40.299 42.5051H44.2503C44.4989 42.5051 44.7373 42.4064 44.9131 42.2306C45.089 42.0548 45.1878 41.8163 45.1878 41.5676C45.1878 41.319 45.089 41.0806 44.9131 40.9048C44.7373 40.7289 44.4989 40.6301 44.2503 40.6301ZM32.4378 40.6301H26.7502V36.8801C26.7502 36.6315 26.6515 36.3931 26.4756 36.2173C26.2999 36.0414 26.0613 35.9426 25.8127 35.9426C25.5641 35.9426 25.3257 36.0414 25.1498 36.2173C24.974 36.3931 24.8752 36.6315 24.8752 36.8801V40.6301H19.0615V21.5989C19.0615 19.6064 19.9015 18.7564 21.8677 18.7564H29.6503C31.6065 18.7564 32.4415 19.6064 32.4415 21.5989L32.4378 40.6301ZM40.2502 35.0752C39.7696 35.0748 39.3088 34.8838 38.969 34.544C38.6292 34.2041 38.4381 33.7433 38.4378 33.2627V30.4289C38.4378 29.9482 38.6287 29.4872 38.9686 29.1473C39.3085 28.8074 39.7696 28.6164 40.2502 28.6164C40.731 28.6164 41.192 28.8074 41.5319 29.1473C41.8718 29.4872 42.0627 29.9482 42.0627 30.4289V33.2614C42.0627 33.7422 41.8718 34.2034 41.532 34.5435C41.1921 34.8836 40.7311 35.0748 40.2502 35.0752ZM29.8752 24.3814C29.8752 24.6301 29.7765 24.8685 29.6007 25.0443C29.4249 25.2201 29.1864 25.3189 28.9377 25.3189H22.7502C22.6211 25.3295 22.4912 25.3132 22.3687 25.271C22.2462 25.2289 22.1337 25.1618 22.0385 25.0739C21.9432 24.9862 21.8671 24.8796 21.8151 24.7609C21.7631 24.6422 21.7363 24.5141 21.7363 24.3845C21.7363 24.255 21.7631 24.1268 21.8151 24.0082C21.8671 23.8895 21.9432 23.7829 22.0385 23.6951C22.1337 23.6073 22.2462 23.5403 22.3687 23.498C22.4912 23.4559 22.6211 23.4396 22.7502 23.4502H28.9377C29.1853 23.4502 29.4228 23.5481 29.5984 23.7225C29.7741 23.897 29.8736 24.1339 29.8752 24.3814ZM29.8752 29.0677C29.8752 29.3163 29.7765 29.5547 29.6007 29.7306C29.4249 29.9064 29.1864 30.0052 28.9377 30.0052H22.7502C22.5016 30.0052 22.2631 29.9064 22.0873 29.7306C21.9115 29.5547 21.8127 29.3163 21.8127 29.0677C21.8127 28.8191 21.9115 28.5806 22.0873 28.4048C22.2631 28.229 22.5016 28.1302 22.7502 28.1302H28.9377C29.1864 28.1302 29.4249 28.229 29.6007 28.4048C29.7765 28.5806 29.8752 28.8191 29.8752 29.0677Z" fill="#3451C1"/>
</g>
</g>
</g>
<defs>
<clipPath id="clip0_22_2267">
<rect width="30" height="30.75" fill="white" transform="translate(15.5 14.625)"/>
</clipPath>
<clipPath id="clip1_22_2267">
<rect width="30" height="30.75" fill="white" transform="translate(15.5 14.625)"/>
</clipPath>
<clipPath id="clip2_22_2267">
<rect width="30" height="30.75" fill="white" transform="translate(15.5 14.625)"/>
</clipPath>
</defs>
</svg>
