<svg width="704" height="459" viewBox="0 0 704 459" fill="none" xmlns="http://www.w3.org/2000/svg">
<path fill-rule="evenodd" clip-rule="evenodd" d="M578.382 298.66C578.995 301.774 578.617 301.245 583.629 301.99C588.086 302.534 586.631 301.089 588.577 305.26C590.296 309.094 593.866 313.952 595.154 316.905C593.01 318.815 581.561 322.622 578.072 324.855C578.486 325.617 578.815 326.227 579.291 327.025C580.016 328.279 579.761 328.138 581.58 327.864C585.522 327.375 598.147 325.82 600.479 325.828C602.118 328.443 606.119 335.995 608.38 337.031C609.448 337.516 611.291 338.108 611.873 336.295C613.259 331.832 608.859 326.513 606.347 322.455C605.331 320.827 605.669 321.121 606.481 318.899C607.316 316.48 613.751 299.117 613.628 297.983C613.508 297.596 612.116 295.439 611.869 294.981C610.863 296.347 609.831 297.911 608.908 299.428L603.252 308.147C602.438 309.618 601.296 311.228 600.335 312.511C599.262 310.53 598.099 308.712 596.961 306.696C591.296 296.729 590.882 301.091 592.16 294.112C592.816 290.206 593.902 288.243 591.139 287.358C587.97 294.143 584.306 297.454 578.382 298.66ZM584.71 291.594C585.441 292.532 584.019 294.199 583.114 293.272L582.005 291.806C581.294 290.984 582.633 289.163 583.557 290.208L584.71 291.594ZM393.924 243.586C392.642 243.945 392.588 241.779 393.827 241.503L394.871 241.122C396.262 240.716 396.208 242.927 395.033 243.24L393.924 243.586ZM400.82 241.529C399.535 241.887 399.483 239.722 400.699 239.329L402.656 238.81C403.939 238.451 404.039 240.534 402.755 240.892L400.82 241.529ZM408.56 239.3C407.342 239.694 407.178 237.576 408.462 237.218L410.417 236.698C411.699 236.341 411.863 238.46 410.471 238.863L408.56 239.3ZM416.249 237.468C414.948 237.711 415.064 235.534 416.304 235.259L418.213 234.819C419.58 234.616 419.459 236.791 418.158 237.033L416.249 237.468ZM424.018 235.789C422.718 236.031 422.836 233.856 424.074 233.579L426.001 233.257C427.304 233.018 427.184 235.193 425.948 235.468L424.018 235.789ZM431.718 234.392C430.48 234.667 430.491 232.538 431.836 232.215L433.83 231.931C434.958 231.701 435.011 233.864 433.601 234.153L431.718 234.392ZM439.408 233.308C438.087 233.431 438.445 231.28 439.59 231.168L441.585 230.883C442.858 230.841 442.568 233.028 441.356 233.104L439.408 233.308ZM447.09 232.54C445.816 232.583 446.063 230.476 447.383 230.353L449.285 230.231C450.606 230.109 450.203 232.34 448.993 232.42L447.09 232.54ZM454.768 232.091C453.491 232.132 453.783 229.945 455.057 229.904L456.962 229.782C458.172 229.704 457.943 231.926 456.67 231.968L454.768 232.091ZM462.304 231.885C461.01 231.809 461.54 229.646 462.771 229.686L464.627 229.645C465.921 229.722 465.411 232.002 464.226 231.879L462.304 231.885ZM469.854 232.111C468.626 232.072 469.027 229.839 470.365 229.831L472.197 229.991C473.424 230.03 472.96 232.228 471.731 232.188L469.854 232.111ZM477.27 232.584C475.957 232.391 476.768 230.172 477.844 230.341L479.739 230.534C481.052 230.727 480.286 232.864 479.165 232.777L477.27 232.584ZM484.676 233.371C483.429 233.214 484.131 231.042 485.269 231.245L487.12 231.521C488.368 231.676 487.729 233.885 486.526 233.647L484.676 233.371ZM491.921 234.605C490.845 234.436 491.31 232.239 492.624 232.431L494.426 232.788C495.758 233.1 494.819 235.247 493.724 234.963L491.921 234.605ZM499.046 236.2C497.89 235.879 498.767 233.694 499.859 233.979L501.683 234.455C502.84 234.775 502.012 236.878 500.854 236.556L499.046 236.2ZM506.103 238.075C505.011 237.791 505.711 235.614 506.934 235.972C507.535 236.091 508.091 236.292 508.758 236.447C509.742 236.778 509.102 238.986 507.883 238.631C507.261 238.393 506.659 238.276 506.103 238.075ZM513.044 240.312C511.865 239.873 512.823 237.842 513.936 238.245L515.604 238.846C516.781 239.284 515.779 241.4 514.71 240.915L513.044 240.312ZM519.756 242.957C518.644 242.556 519.582 240.408 520.757 240.843L522.445 241.564C523.447 242.012 522.619 244.115 521.379 243.642L519.756 242.957ZM526.287 245.931C525.2 245.329 526.394 243.322 527.353 243.852L528.997 244.654C530.082 245.254 528.996 247.216 527.929 246.734L526.287 245.931ZM532.748 249.185C531.725 248.619 532.745 246.621 533.879 247.141C534.389 247.423 534.964 247.741 535.474 248.024C536.434 248.555 535.43 250.669 534.344 250.068C533.769 249.75 533.258 249.468 532.748 249.185ZM538.98 252.846C537.876 252.128 539.199 250.19 540.175 250.836L541.664 251.768C542.704 252.45 541.445 254.421 540.469 253.775L538.98 252.846ZM545.016 256.718C544.037 256.07 545.231 254.063 546.228 254.827L547.737 255.875C548.713 256.522 547.5 258.412 546.524 257.764L545.016 256.718ZM550.823 260.999C549.956 260.306 551.15 258.297 552.146 259.061C552.612 259.426 553.141 259.825 553.606 260.191C554.521 260.803 553.326 262.811 552.329 262.045C551.864 261.682 551.399 261.317 550.823 260.999ZM556.541 265.442C555.592 264.597 557.06 262.848 557.881 263.622L559.298 264.832C560.184 265.642 558.78 267.429 557.958 266.654L556.541 265.442ZM562.035 270.296C561.147 269.484 562.488 267.665 563.374 268.476L564.789 269.685C565.614 270.461 564.227 272.364 563.341 271.551L562.035 270.296ZM567.261 275.323C566.439 274.548 567.825 272.646 568.729 273.573L570.037 274.83C570.895 275.84 569.346 277.437 568.568 276.581L567.261 275.323ZM572.356 280.594C571.558 279.621 573.047 277.99 573.824 278.846L575.149 280.22C575.945 281.194 574.459 282.826 573.616 281.934L572.356 280.594ZM577.248 286.077C576.471 285.221 577.94 283.47 578.781 284.365L579.997 285.784C580.775 286.641 579.324 288.507 578.466 287.498L577.248 286.077Z" fill="#DFEAFA"/>
<path fill-rule="evenodd" clip-rule="evenodd" d="M194.2 211.639C193.398 210.779 194.729 209.022 195.706 209.855L196.926 211.201C197.7 211.948 196.463 213.849 195.459 212.902L194.2 211.639ZM390.561 242.589C391.835 242.128 392.032 244.25 390.796 244.627L389.763 245.09C388.381 245.606 388.291 243.43 389.46 243.023L390.561 242.589ZM383.712 245.195C384.989 244.734 385.184 246.855 383.978 247.345L382.03 248.02C380.755 248.481 380.517 246.445 381.794 245.984L383.712 245.195ZM376.02 248.04C377.227 247.55 377.532 249.616 376.255 250.077L374.31 250.753C373.035 251.212 372.73 249.145 374.113 248.631L376.02 248.04ZM368.353 250.491C369.655 250.142 369.68 252.29 368.442 252.666L366.538 253.259C365.167 253.575 365.146 251.429 366.448 251.081L368.353 250.491ZM360.595 252.799C361.896 252.452 361.918 254.597 360.683 254.975L358.753 255.454C357.449 255.8 357.428 253.653 358.662 253.278L360.595 252.799ZM352.888 254.825C354.124 254.45 354.253 256.541 352.912 256.972L350.911 257.42C349.784 257.742 349.589 255.622 350.997 255.219L352.888 254.825ZM345.172 256.541C346.502 256.309 346.281 258.452 345.128 258.659L343.126 259.108C341.84 259.257 341.99 257.085 343.213 256.907L345.172 256.541ZM337.442 257.948C338.729 257.797 338.618 259.887 337.289 260.12L335.371 260.401C334.041 260.634 334.303 258.408 335.523 258.227L337.442 257.948ZM329.697 259.04C330.986 258.891 330.834 261.064 329.547 261.212L327.626 261.494C326.405 261.673 326.491 259.471 327.778 259.322L329.697 259.04ZM322.077 259.882C323.393 259.847 322.999 262.016 321.75 262.081L319.873 262.279C318.557 262.313 318.924 260.031 320.132 260.051L322.077 259.882ZM314.417 260.301C315.663 260.235 315.403 262.461 314.049 262.583L312.183 262.581C310.938 262.647 311.264 260.45 312.511 260.384L314.417 260.301ZM306.875 260.466C308.218 260.543 307.542 262.792 306.441 262.717L304.51 262.688C303.167 262.61 303.803 260.447 304.944 260.436L306.875 260.466ZM299.324 260.321C300.597 260.37 300.029 262.562 298.862 262.46L296.97 262.345C295.696 262.299 296.198 260.075 297.432 260.207L299.324 260.321ZM291.906 259.724C293.007 259.799 292.679 261.996 291.336 261.919L289.488 261.721C288.118 261.528 288.929 259.34 290.056 259.526L291.906 259.724ZM284.586 258.763C285.777 258.98 285.033 261.2 283.908 261.013L282.029 260.7C280.837 260.485 281.537 258.349 282.731 258.567L284.586 258.763ZM277.315 257.52C278.441 257.707 277.874 259.904 276.612 259.656C275.996 259.591 275.42 259.44 274.734 259.345C273.716 259.103 274.219 256.88 275.477 257.125C276.122 257.306 276.739 257.371 277.315 257.52ZM270.14 255.913C271.363 256.244 270.526 258.32 269.372 258.018L267.644 257.57C266.422 257.239 267.298 255.077 268.413 255.462L270.14 255.913ZM263.17 253.886C264.322 254.185 263.512 256.374 262.294 256.046L260.537 255.481C259.493 255.127 260.194 252.991 261.48 253.35L263.17 253.886ZM256.36 251.519C257.501 252.018 256.423 254.091 255.417 253.651L253.699 253.004C252.561 252.507 253.532 250.488 254.644 250.87L256.36 251.519ZM249.604 248.872C250.677 249.341 249.774 251.39 248.592 250.975C248.057 250.741 247.454 250.478 246.919 250.244C245.912 249.804 246.79 247.643 247.93 248.141C248.533 248.404 249.068 248.638 249.604 248.872ZM243.052 245.806C244.218 246.418 243.005 248.433 241.974 247.881L240.405 247.093C239.307 246.511 240.452 244.469 241.483 245.02L243.052 245.806ZM236.686 242.516C237.72 243.069 236.642 245.142 235.582 244.476L233.985 243.575C232.954 243.023 234.059 241.064 235.09 241.617L236.686 242.516ZM230.524 238.806C231.448 239.412 230.371 241.487 229.312 240.821C228.815 240.502 228.254 240.155 227.759 239.835C226.792 239.312 227.87 237.239 228.931 237.906C229.425 238.223 229.92 238.542 230.524 238.806ZM224.442 234.928C225.459 235.677 224.087 237.52 223.204 236.829L221.69 235.761C220.74 235.041 222.045 233.167 222.928 233.858L224.442 234.928ZM218.56 230.628C219.513 231.35 218.274 233.25 217.323 232.528L215.811 231.462C214.925 230.769 216.204 228.783 217.156 229.506L218.56 230.628ZM212.938 226.135C213.821 226.827 212.543 228.812 211.566 227.978L210.159 226.855C209.224 225.936 210.688 224.236 211.532 225.011L212.938 226.135ZM207.432 221.391C208.305 222.28 206.904 224.007 206.061 223.233L204.628 221.995C203.758 221.107 205.156 219.378 206.069 220.183L207.432 221.391ZM202.119 216.422C202.962 217.197 201.589 219.041 200.679 218.234L199.354 216.944C198.51 216.168 199.857 214.213 200.793 215.131L202.119 216.422Z" fill="#DFEAFA"/>
<path fill-rule="evenodd" clip-rule="evenodd" d="M192.187 205.996C192.917 206.935 191.495 208.601 190.591 207.675L189.481 206.208C188.77 205.386 190.109 203.566 191.033 204.61L192.187 205.996ZM1.4002 157.989C0.118695 158.347 0.0641861 156.181 1.30299 155.905L2.34716 155.524C3.73863 155.118 3.6842 157.329 2.50968 157.642L1.4002 157.989ZM8.29574 155.931C7.01158 156.289 6.95926 154.124 8.17547 153.731L10.1326 153.212C11.4153 152.853 11.5157 154.936 10.2315 155.294L8.29574 155.931ZM16.036 153.702C14.8186 154.096 14.6541 151.978 15.9383 151.62L17.8933 151.1C19.175 150.743 19.339 152.862 17.9471 153.265L16.036 153.702ZM23.7252 151.871C22.424 152.113 22.5402 149.936 23.7805 149.661L25.6892 149.221C27.0559 149.018 26.9353 151.193 25.6345 151.435L23.7252 151.871ZM31.4946 150.191C30.1938 150.433 30.3125 148.258 31.5504 147.981L33.4773 147.659C34.7798 147.42 34.6605 149.595 33.4241 149.87L31.4946 150.191ZM39.1947 148.794C37.9563 149.069 37.9669 146.94 39.3124 146.617L41.3063 146.333C42.4342 146.103 42.4871 148.267 41.0776 148.555L39.1947 148.794ZM46.8844 147.711C45.5633 147.833 45.9208 145.682 47.0663 145.57L49.0613 145.285C50.3342 145.243 50.0441 147.43 48.8319 147.507L46.8844 147.711ZM54.5665 146.942C53.2926 146.986 53.5389 144.878 54.8593 144.755L56.7608 144.633C58.082 144.511 57.6795 146.743 56.4691 146.823L54.5665 146.942ZM62.2439 146.493C60.9676 146.534 61.2597 144.347 62.5333 144.306L64.4382 144.184C65.6482 144.106 65.4196 146.329 64.1466 146.37L62.2439 146.493ZM69.7807 146.287C68.4864 146.211 69.016 144.048 70.2467 144.088L72.1029 144.047C73.3973 144.125 72.887 146.404 71.7021 146.281L69.7807 146.287ZM77.3301 146.513C76.102 146.474 76.5037 144.242 77.8417 144.233L79.6734 144.394C80.9007 144.433 80.4363 146.63 79.2075 146.59L77.3301 146.513ZM84.7467 146.986C83.4331 146.794 84.2445 144.574 85.3206 144.743L87.2152 144.936C88.5282 145.129 87.762 147.266 86.6408 147.18L84.7467 146.986ZM92.1524 147.773C90.9049 147.616 91.607 145.444 92.7456 145.647L94.5964 145.923C95.8442 146.078 95.2051 148.288 94.0025 148.049L92.1524 147.773ZM99.3969 149.007C98.3208 148.838 98.7866 146.641 100.101 146.833L101.902 147.19C103.234 147.502 102.295 149.65 101.2 149.365L99.3969 149.007ZM106.522 150.602C105.366 150.281 106.243 148.096 107.335 148.381L109.16 148.857C110.316 149.177 109.488 151.28 108.33 150.958L106.522 150.602ZM113.58 152.477C112.487 152.193 113.187 150.017 114.41 150.374C115.011 150.493 115.567 150.694 116.234 150.849C117.218 151.18 116.579 153.388 115.359 153.033C114.737 152.795 114.136 152.678 113.58 152.477ZM120.52 154.714C119.341 154.275 120.299 152.244 121.412 152.648L123.08 153.248C124.258 153.686 123.256 155.802 122.186 155.317L120.52 154.714ZM127.232 157.359C126.12 156.958 127.058 154.81 128.233 155.246L129.921 155.966C130.924 156.414 130.095 158.517 128.856 158.044L127.232 157.359ZM133.763 160.333C132.676 159.732 133.87 157.724 134.829 158.254L136.474 159.056C137.558 159.656 136.473 161.618 135.406 161.136L133.763 160.333ZM140.224 163.587C139.201 163.021 140.222 161.023 141.355 161.543C141.866 161.826 142.44 162.143 142.951 162.426C143.91 162.957 142.906 165.071 141.82 164.47C141.245 164.152 140.735 163.87 140.224 163.587ZM146.457 167.248C145.352 166.53 146.675 164.592 147.651 165.238L149.14 166.17C150.18 166.852 148.922 168.824 147.945 168.178L146.457 167.248ZM152.492 171.12C151.513 170.473 152.708 168.465 153.705 169.229L155.214 170.277C156.189 170.924 154.976 172.814 154 172.166L152.492 171.12ZM158.299 175.401C157.432 174.708 158.626 172.699 159.622 173.463C160.089 173.828 160.617 174.228 161.082 174.593C161.997 175.205 160.802 177.213 159.805 176.447C159.34 176.084 158.875 175.719 158.299 175.401ZM164.017 179.844C163.068 178.999 164.536 177.25 165.357 178.024L166.775 179.234C167.66 180.044 166.256 181.831 165.434 181.056L164.017 179.844ZM169.511 184.698C168.623 183.886 169.964 182.067 170.851 182.879L172.265 184.087C173.09 184.863 171.703 186.766 170.817 185.953L169.511 184.698ZM174.738 189.725C173.916 188.95 175.301 187.048 176.206 187.975L177.514 189.232C178.371 190.242 176.822 191.839 176.045 190.983L174.738 189.725ZM179.833 194.997C179.034 194.023 180.523 192.392 181.3 193.248L182.625 194.623C183.421 195.596 181.935 197.228 181.092 196.336L179.833 194.997ZM184.724 200.479C183.947 199.623 185.416 197.872 186.257 198.767L187.473 200.186C188.252 201.044 186.8 202.909 185.942 201.9L184.724 200.479Z" fill="#DFEAFA"/>
<g opacity="0.5">
<path fill-rule="evenodd" clip-rule="evenodd" d="M652.459 205.797C654.071 208.139 653.54 207.807 658.494 207.188C662.86 206.542 661.013 205.739 664.227 208.603C667.116 211.252 672.084 214.271 674.275 216.32C672.897 218.368 663.411 224.188 660.878 226.819C661.521 227.328 662.033 227.737 662.744 228.259C663.843 229.086 663.555 229.035 665.173 228.375C668.712 227.028 680.051 222.723 682.243 222.164C684.651 223.858 690.919 228.926 693.387 229.207C694.551 229.336 696.479 229.363 696.422 227.771C696.24 223.866 690.34 220.68 686.632 218.044C685.137 216.989 685.551 217.142 685.575 215.168C685.555 213.031 685.824 197.586 685.332 196.709C685.091 196.429 683.066 195.041 682.682 194.735C682.191 196.071 681.742 197.572 681.38 199.009L678.967 207.353C678.692 208.727 678.156 210.291 677.68 211.55C676.014 210.226 674.317 209.055 672.578 207.718C663.944 201.122 665.006 204.71 663.885 198.82C663.203 195.536 663.57 193.704 660.681 193.665C659.961 199.86 657.621 203.397 652.459 205.797ZM656.053 198.612C657.051 199.185 656.269 200.863 655.112 200.341L653.583 199.438C652.641 198.953 653.294 197.172 654.509 197.783L656.053 198.612ZM460.934 206.485C459.85 207.083 459.078 205.364 460.15 204.843L461.003 204.285C462.175 203.623 462.859 205.405 461.86 205.939L460.934 206.485ZM466.725 203.168C465.638 203.765 464.869 202.047 465.88 201.438L467.546 200.548C468.631 199.95 469.418 201.592 468.331 202.189L466.725 203.168ZM473.252 199.509C472.24 200.119 471.381 198.465 472.468 197.867L474.131 196.977C475.216 196.381 476.074 198.036 474.901 198.696L473.252 199.509ZM479.864 196.179C478.722 196.689 478.108 194.92 479.181 194.399L480.827 193.585C482.043 193.091 482.653 194.859 481.512 195.368L479.864 196.179ZM486.601 192.953C485.46 193.461 484.848 191.694 485.919 191.171L487.621 190.447C488.764 189.94 489.376 191.708 488.306 192.228L486.601 192.953ZM493.367 189.968C492.296 190.488 491.598 188.783 492.754 188.199L494.532 187.488C495.514 187.031 496.283 188.748 495.056 189.321L493.367 189.968ZM500.228 187.237C499.028 187.655 498.649 185.849 499.687 185.481L501.466 184.769C502.647 184.427 503.102 186.247 501.989 186.602L500.228 187.237ZM507.186 184.76C506.004 185.103 505.535 183.358 506.734 182.94L508.479 182.381C509.679 181.963 510.043 183.845 508.933 184.203L507.186 184.76ZM514.246 182.539C513.062 182.881 512.609 181.062 513.791 180.72L515.539 180.161C516.649 179.805 517.174 181.637 515.992 181.979L514.246 182.539ZM521.255 180.546C520.014 180.8 519.793 178.942 520.961 178.675L522.691 178.193C523.932 177.94 524.211 179.887 523.057 180.076L521.255 180.546ZM528.419 178.897C527.253 179.163 526.888 177.281 528.142 176.95L529.915 176.634C531.081 176.367 531.375 178.237 530.208 178.503L528.419 178.897ZM535.541 177.477C534.244 177.641 534.268 175.669 535.334 175.544L537.178 175.239C538.475 175.075 538.466 176.969 537.384 177.172L535.541 177.477ZM542.757 176.31C541.533 176.487 541.471 174.58 542.607 174.466L544.437 174.238C545.66 174.06 545.795 175.981 544.586 176.082L542.757 176.31ZM549.97 175.541C548.904 175.666 548.611 173.796 549.908 173.631L551.719 173.48C553.073 173.406 552.906 175.351 551.783 175.389L549.97 175.541ZM557.192 175.088C555.999 175.112 556.096 173.152 557.217 173.114L559.088 173.053C560.28 173.028 560.202 174.911 559.008 174.934L557.192 175.088ZM564.442 174.876C563.322 174.914 563.256 173.003 564.523 172.993C565.127 172.942 565.715 172.968 566.394 172.93C567.428 172.957 567.561 174.877 566.298 174.889C565.635 174.85 565.031 174.902 564.442 174.876ZM571.703 174.982C570.45 174.917 570.675 173.06 571.854 173.113L573.62 173.189C574.871 173.254 574.634 175.188 573.469 175.06L571.703 174.982ZM578.885 175.469C577.708 175.418 577.875 173.473 579.123 173.536L580.948 173.704C582.038 173.818 581.959 175.701 580.638 175.624L578.885 175.469ZM586.007 176.264C584.786 176.047 585.24 174.151 586.318 174.343L588.128 174.585C589.346 174.802 588.979 176.634 587.817 176.508L586.007 176.264ZM593.157 177.299C592.008 177.095 592.302 175.25 593.539 175.391C594.112 175.493 594.757 175.607 595.331 175.71C596.409 175.901 596.169 177.836 594.949 177.618C594.303 177.504 593.73 177.402 593.157 177.299ZM600.226 178.716C598.95 178.409 599.549 176.539 600.68 176.818L602.388 177.203C603.592 177.496 603.065 179.378 601.934 179.098L600.226 178.716ZM607.182 180.348C606.047 180.068 606.501 178.173 607.691 178.542L609.457 179.014C610.588 179.295 610.077 181.101 608.946 180.819L607.182 180.348ZM614.058 182.363C613.014 182.02 613.466 180.123 614.656 180.493C615.215 180.672 615.845 180.863 616.402 181.042C617.465 181.31 617.011 183.205 615.82 182.835C615.263 182.657 614.705 182.478 614.058 182.363ZM620.905 184.53C619.732 184.084 620.529 182.329 621.558 182.75L623.291 183.373C624.392 183.806 623.668 185.576 622.638 185.156L620.905 184.53ZM627.678 187.079C626.574 186.646 627.228 184.865 628.33 185.299L630.06 185.923C631.093 186.344 630.424 188.201 629.321 187.766L627.678 187.079ZM634.257 189.832C633.227 189.411 633.896 187.554 635.054 188.077L636.7 188.764C637.841 189.364 636.917 191.017 635.903 190.521L634.257 189.832ZM640.794 192.812C639.72 192.227 640.576 190.562 641.591 191.058L643.293 191.835C644.364 192.421 643.511 194.086 642.422 193.577L640.794 192.812ZM647.211 196.01C646.196 195.514 646.993 193.758 648.081 194.269L649.695 195.109C650.711 195.606 649.968 197.45 648.827 196.851L647.211 196.01Z" fill="#A0C2F0"/>
<path fill-rule="evenodd" clip-rule="evenodd" d="M262.762 229.369C261.724 228.876 262.389 227.148 263.584 227.577L265.176 228.358C266.152 228.767 265.622 230.587 264.364 230.074L262.762 229.369ZM457.444 206.503C458.487 205.826 459.378 207.475 458.342 208.076L457.527 208.696C456.4 209.445 455.592 207.726 456.555 207.118L457.444 206.503ZM451.88 210.248C452.926 209.57 453.814 211.219 452.844 211.903L451.24 212.915C450.195 213.593 449.294 212.022 450.34 211.344L451.88 210.248ZM445.602 214.388C446.572 213.704 447.546 215.282 446.5 215.96L444.898 216.973C443.854 217.649 442.88 216.07 444.008 215.324L445.602 214.388ZM439.217 218.208C440.324 217.613 441.061 219.325 440.024 219.925L438.433 220.861C437.251 221.446 436.518 219.735 437.625 219.141L439.217 218.208ZM432.7 221.935C433.806 221.341 434.54 223.051 433.506 223.653L431.852 224.504C430.744 225.097 430.009 223.386 431.044 222.787L432.7 221.935ZM426.136 225.423C427.172 224.824 427.989 226.465 426.872 227.135L425.143 227.978C424.191 228.509 423.303 226.861 424.491 226.197L426.136 225.423ZM419.461 228.667C420.633 228.159 421.137 229.926 420.124 230.371L418.393 231.215C417.235 231.646 416.654 229.873 417.743 229.434L419.461 228.667ZM412.67 231.666C413.829 231.233 414.42 232.932 413.249 233.44L411.542 234.13C410.37 234.638 409.875 232.795 410.961 232.354L412.67 231.666ZM405.76 234.418C406.922 233.986 407.501 235.76 406.342 236.191L404.631 236.882C403.545 237.321 402.894 235.54 404.052 235.109L405.76 234.418ZM398.885 236.939C400.109 236.592 400.46 238.421 399.309 238.777L397.612 239.39C396.387 239.736 395.974 237.822 397.115 237.545L398.885 236.939ZM391.831 239.131C392.98 238.776 393.475 240.619 392.244 241.045L390.491 241.496C389.344 241.851 388.92 240.014 390.069 239.66L391.831 239.131ZM384.804 241.092C386.091 240.828 386.203 242.79 385.145 242.997L383.322 243.443C382.035 243.705 381.913 241.822 382.981 241.536L384.804 241.092ZM377.665 242.807C378.877 242.537 379.072 244.428 377.942 244.629L376.127 244.996C374.916 245.268 374.648 243.368 375.85 243.175L377.665 242.807ZM370.501 244.128C371.559 243.921 371.982 245.757 370.695 246.022L368.894 246.311C367.544 246.49 367.577 244.543 368.698 244.419L370.501 244.128ZM363.307 245.135C364.498 245.019 364.537 246.975 363.418 247.099L361.55 247.304C360.359 247.421 360.307 245.543 361.5 245.428L363.307 245.135ZM356.067 245.904C357.185 245.78 357.384 247.674 356.116 247.782C355.516 247.88 354.925 247.899 354.249 247.989C353.213 248.042 352.946 246.143 354.209 246.034C354.875 246.022 355.476 245.924 356.067 245.904ZM348.794 246.359C350.053 246.327 349.957 248.19 348.773 248.228L347.001 248.289C345.744 248.321 345.848 246.379 347.023 246.417L348.794 246.359ZM341.575 246.428C342.756 246.388 342.724 248.335 341.47 248.367L339.633 248.342C338.535 248.312 338.483 246.434 339.81 246.409L341.575 246.428ZM334.394 246.187C335.63 246.309 335.307 248.228 334.216 248.12L332.388 248.019C331.155 247.897 331.395 246.048 332.566 246.084L334.394 246.187ZM327.169 245.708C328.332 245.823 328.166 247.68 326.918 247.635C326.338 247.578 325.684 247.514 325.103 247.456C324.012 247.349 324.118 245.407 325.354 245.529C326.007 245.594 326.588 245.651 327.169 245.708ZM319.997 244.845C321.295 245.052 320.826 246.957 319.674 246.766L317.939 246.516C316.714 246.317 317.111 244.406 318.262 244.597L319.997 244.845ZM312.925 243.758C314.08 243.95 313.756 245.869 312.54 245.593L310.741 245.26C309.589 245.068 309.975 243.233 311.127 243.426L312.925 243.758ZM305.905 242.285C306.974 242.546 306.652 244.466 305.436 244.191C304.864 244.056 304.221 243.914 303.651 243.779C302.569 243.595 302.892 241.676 304.11 241.952C304.68 242.086 305.25 242.22 305.905 242.285ZM298.904 240.659C300.108 241.011 299.433 242.817 298.374 242.479L296.597 241.992C295.465 241.647 296.068 239.832 297.127 240.17L298.904 240.659ZM291.951 238.647C293.086 238.993 292.554 240.813 291.421 240.466L289.647 239.98C288.585 239.641 289.126 237.743 290.259 238.09L291.951 238.647ZM285.178 236.418C286.237 236.756 285.697 238.654 284.502 238.224L282.807 237.667C281.624 237.159 282.434 235.444 283.483 235.859L285.178 236.418ZM278.431 233.959C279.545 234.457 278.804 236.179 277.755 235.764L275.998 235.122C274.886 234.622 275.624 232.901 276.749 233.323L278.431 233.959ZM271.789 231.274C272.838 231.689 272.162 233.496 271.039 233.072L269.366 232.361C268.315 231.945 268.931 230.055 270.114 230.562L271.789 231.274Z" fill="#A0C2F0"/>
<path fill-rule="evenodd" clip-rule="evenodd" d="M258.995 225.345C259.994 225.918 259.212 227.595 258.055 227.074L256.526 226.17C255.584 225.685 256.236 223.905 257.451 224.516L258.995 225.345ZM63.8766 233.218C62.7924 233.815 62.021 232.097 63.0926 231.575L63.9463 231.017C65.1181 230.356 65.8022 232.137 64.8033 232.672L63.8766 233.218ZM69.6676 229.9C68.5807 230.498 67.8118 228.78 68.8231 228.17L70.4885 227.281C71.5738 226.683 72.3605 228.324 71.2736 228.922L69.6676 229.9ZM76.1951 226.241C75.1827 226.851 74.324 225.197 75.4109 224.6L77.0737 223.71C78.1586 223.114 79.0173 224.769 77.8443 225.428L76.1951 226.241ZM82.8065 222.912C81.6652 223.422 81.0505 221.652 82.1237 221.132L83.7698 220.317C84.9857 219.824 85.5955 221.592 84.4545 222.101L82.8065 222.912ZM89.5438 219.685C88.4027 220.194 87.7911 218.426 88.8612 217.904L90.5639 217.18C91.7072 216.672 92.3186 218.441 91.249 218.961L89.5438 219.685ZM96.3098 216.7C95.2385 217.221 94.5406 215.516 95.6968 214.932L97.4746 214.221C98.4572 213.763 99.2262 215.481 97.9987 216.053L96.3098 216.7ZM103.171 213.97C101.971 214.388 101.591 212.581 102.63 212.213L104.408 211.502C105.59 211.16 106.045 212.979 104.932 213.334L103.171 213.97ZM110.129 211.492C108.947 211.836 108.478 210.091 109.677 209.673L111.422 209.114C112.622 208.696 112.986 210.578 111.876 210.935L110.129 211.492ZM117.189 209.272C116.004 209.614 115.551 207.794 116.734 207.452L118.482 206.893C119.592 206.538 120.116 208.37 118.935 208.712L117.189 209.272ZM124.198 207.279C122.957 207.532 122.735 205.674 123.904 205.407L125.634 204.925C126.875 204.673 127.154 206.619 126 206.809L124.198 207.279ZM131.362 205.629C130.196 205.896 129.831 204.013 131.085 203.682L132.858 203.366C134.023 203.1 134.318 204.97 133.151 205.236L131.362 205.629ZM138.484 204.209C137.187 204.374 137.21 202.402 138.277 202.276L140.12 201.971C141.418 201.807 141.409 203.702 140.327 203.905L138.484 204.209ZM145.7 203.043C144.476 203.219 144.413 201.312 145.55 201.198L147.38 200.971C148.603 200.792 148.738 202.714 147.529 202.815L145.7 203.043ZM152.913 202.273C151.846 202.399 151.553 200.529 152.851 200.363L154.661 200.213C156.016 200.138 155.849 202.084 154.726 202.122L152.913 202.273ZM160.134 201.82C158.942 201.844 159.039 199.884 160.159 199.847L162.031 199.785C163.223 199.761 163.145 201.643 161.951 201.667L160.134 201.82ZM167.385 201.609C166.265 201.646 166.198 199.736 167.466 199.725C168.07 199.674 168.658 199.701 169.337 199.663C170.371 199.689 170.504 201.61 169.241 201.622C168.578 201.582 167.974 201.634 167.385 201.609ZM174.646 201.714C173.393 201.649 173.617 199.792 174.797 199.845L176.563 199.921C177.814 199.986 177.577 201.921 176.412 201.793L174.646 201.714ZM181.828 202.202C180.651 202.151 180.818 200.205 182.066 200.269L183.891 200.436C184.981 200.551 184.902 202.434 183.581 202.356L181.828 202.202ZM188.95 202.996C187.729 202.779 188.183 200.884 189.26 201.076L191.071 201.318C192.289 201.534 191.922 203.367 190.76 203.24L188.95 202.996ZM196.1 204.032C194.951 203.827 195.245 201.982 196.482 202.123C197.055 202.225 197.7 202.34 198.274 202.442C199.351 202.634 199.112 204.568 197.891 204.351C197.246 204.236 196.673 204.134 196.1 204.032ZM203.169 205.448C201.893 205.142 202.491 203.271 203.623 203.551L205.33 203.935C206.534 204.229 206.008 206.11 204.876 205.83L203.169 205.448ZM210.124 207.081C208.99 206.8 209.444 204.905 210.634 205.275L212.4 205.747C213.531 206.027 213.02 207.833 211.888 207.552L210.124 207.081ZM217.001 209.096C215.956 208.752 216.409 206.856 217.599 207.225C218.158 207.404 218.787 207.596 219.345 207.775C220.408 208.043 219.954 209.938 218.763 209.567C218.205 209.39 217.647 209.211 217.001 209.096ZM223.848 211.263C222.675 210.817 223.472 209.062 224.501 209.482L226.234 210.106C227.335 210.539 226.61 212.308 225.581 211.888L223.848 211.263ZM230.62 213.812C229.516 213.378 230.171 211.598 231.273 212.032L233.003 212.655C234.036 213.076 233.367 214.934 232.264 214.499L230.62 213.812ZM237.2 216.564C236.17 216.144 236.839 214.287 237.997 214.809L239.643 215.497C240.784 216.096 239.86 217.749 238.845 217.253L237.2 216.564ZM243.737 219.544C242.663 218.959 243.519 217.294 244.534 217.79L246.235 218.568C247.306 219.153 246.454 220.819 245.365 220.31L243.737 219.544ZM250.153 222.743C249.139 222.247 249.936 220.49 251.024 221.002L252.638 221.841C253.653 222.338 252.911 224.182 251.77 223.584L250.153 222.743Z" fill="#A0C2F0"/>
</g>
</svg>
