<svg width="30" height="31" viewBox="0 0 30 31" fill="none" xmlns="http://www.w3.org/2000/svg">
<path fill-rule="evenodd" clip-rule="evenodd" d="M15.03 2.52002C10.5403 2.52002 6.90094 6.15935 6.90094 10.6491C6.90534 13.488 8.38794 16.098 10.7748 17.5631C11.1574 17.7983 11.5595 18.311 11.6477 18.7512L11.8684 19.8562C11.961 20.3183 12.3706 20.6541 12.8414 20.6541H17.2186C17.6895 20.6541 18.099 20.3183 18.1916 19.8562L18.4123 18.7512C18.5005 18.311 18.9026 17.7983 19.2853 17.5638C21.6721 16.098 23.1547 13.488 23.1591 10.6491C23.1591 6.15935 19.5198 2.52002 15.03 2.52002Z" fill="#DFEAFA"/>
<path fill-rule="evenodd" clip-rule="evenodd" d="M11.8235 24.5498L18.2317 24.5823L17.6858 27.8577C17.597 28.3899 17.1324 28.7832 16.5933 28.7832H13.4668C12.9278 28.7832 12.4631 28.3899 12.3743 27.8577L11.8235 24.5498Z" fill="white"/>
<path fill-rule="evenodd" clip-rule="evenodd" d="M11.5909 23.1554H18.4693C18.635 23.1554 18.7945 23.221 18.9114 23.3386C19.0289 23.4555 19.0946 23.615 19.0946 23.7807V24.406C19.0946 24.7493 18.8126 25.0313 18.4693 25.0313H11.5909C11.4251 25.0313 11.2657 24.9656 11.1488 24.8481C11.0312 24.7311 10.9655 24.5717 10.9655 24.406V23.7807C10.9655 23.4374 11.2476 23.1554 11.5909 23.1554Z" fill="#DFEAFA"/>
<path fill-rule="evenodd" clip-rule="evenodd" d="M15.0301 2.52002C13.4762 2.52002 12.2162 6.15935 12.2162 10.6491C12.2174 13.488 12.7308 16.098 13.5574 17.5631C13.6894 17.7983 13.8288 18.311 13.8595 18.7512L13.9358 19.8562C13.9677 20.3183 14.1096 20.6541 14.2722 20.6541H15.7879C15.9505 20.6541 16.0925 20.3183 16.1244 19.8562L16.2006 18.7512C16.2313 18.311 16.3707 17.7983 16.5027 17.5638C17.3293 16.098 17.8427 13.488 17.844 10.6491C17.844 6.15935 16.584 2.52002 15.0301 2.52002Z" fill="white"/>
<path fill-rule="evenodd" clip-rule="evenodd" d="M5.73665 19.8813C5.39645 19.583 4.95749 19.4036 4.47787 19.4036C3.39858 19.4036 2.52377 20.3134 2.52377 21.4358C2.52377 22.5583 3.39858 23.4681 4.47787 23.4681H7.2136C8.07715 23.4681 8.7769 22.7402 8.7769 21.8423C8.7769 20.9443 8.07715 20.2165 7.2136 20.2165C6.8797 20.2165 6.56955 20.3253 6.31565 20.511L5.73665 19.8813Z" fill="#DFEAFA"/>
<path fill-rule="evenodd" clip-rule="evenodd" d="M25.9123 15.6422C26.1506 15.4334 26.4582 15.3077 26.794 15.3077C27.5494 15.3077 28.1616 15.9449 28.1616 16.7303C28.1616 17.5157 27.5494 18.1529 26.794 18.1529H24.8787C24.2746 18.1529 23.7844 17.6432 23.7844 17.0148C23.7844 16.3864 24.2746 15.8767 24.8787 15.8767C25.1126 15.8767 25.3295 15.953 25.5071 16.0831L25.9123 15.6422Z" fill="white"/>
<path fill-rule="evenodd" clip-rule="evenodd" d="M11.3707 25.6373L11.7578 27.9609C11.8966 28.7926 12.6232 29.4085 13.4667 29.4085H16.5933C17.4368 29.4085 18.1635 28.7926 18.3023 27.9609L18.6893 25.6367C19.2721 25.5316 19.7199 25.017 19.7199 24.406V23.7807C19.7199 23.4493 19.5879 23.131 19.3534 22.8965C19.1189 22.662 18.8006 22.5301 18.4692 22.5301H18.1566V20.9781C18.483 20.7455 18.7219 20.3934 18.8044 19.9788L19.0258 18.8739C19.0839 18.5831 19.3597 18.2517 19.6123 18.0966C22.183 16.5184 23.78 13.7076 23.7844 10.6504V10.6492C23.7844 5.81421 19.8649 1.89478 15.03 1.89478C10.1951 1.89478 6.27563 5.81421 6.27563 10.6492V10.6498C6.27628 10.9337 6.29003 11.2145 6.31753 11.4933C6.35133 11.8366 6.65708 12.088 7.00103 12.0542C7.34433 12.0205 7.59569 11.7147 7.56193 11.3708C7.53878 11.1325 7.52688 10.8918 7.52628 10.6485C7.52628 7.20431 9.84679 4.30286 13.0096 3.42054C12.1717 4.92629 11.5908 7.59761 11.5908 10.6492V10.6498C11.5927 13.6163 12.1492 16.3395 13.0121 17.8709C13.1153 18.0529 13.2116 18.4531 13.2354 18.7945L13.3117 19.8994C13.3148 19.9438 13.3192 19.987 13.3235 20.0289H12.8414C12.667 20.0289 12.5156 19.905 12.4819 19.7337L12.2611 18.6288C12.1429 18.0391 11.6146 17.3456 11.1018 17.0305C10.0669 16.3952 9.21588 15.526 8.60433 14.5117C8.42608 14.2159 8.04088 14.1209 7.74573 14.2991C7.44998 14.4773 7.35493 14.8619 7.53313 15.1577C8.24663 16.3408 9.23963 17.355 10.4477 18.0966C10.7003 18.2517 10.9761 18.5831 11.0343 18.8739L11.2556 19.9788C11.3382 20.3934 11.577 20.7455 11.9035 20.9781V22.5301H11.5908C10.9048 22.5301 10.3402 23.0948 10.3402 23.7807V24.406C10.3402 24.7375 10.4721 25.0557 10.7066 25.2902C10.8886 25.4722 11.1206 25.5923 11.3707 25.6373ZM17.4187 25.6567H17.198C16.8528 25.6567 16.5727 25.3765 16.5727 25.0314C16.5727 24.6862 16.8528 24.406 17.198 24.406H18.4692V23.8308C18.4292 23.8207 18.3723 23.7807 18.4692 23.7807H11.5908V24.356C11.6308 24.366 11.6877 24.406 11.5908 24.406H15.1888C15.5334 24.406 15.8142 24.6862 15.8142 25.0314C15.8142 25.3765 15.5334 25.6567 15.1888 25.6567H12.6413L12.9915 27.7552C13.0296 27.9866 13.2322 28.1579 13.4667 28.1579H16.5933C16.8278 28.1579 17.0304 27.9866 17.0685 27.7552L17.4187 25.6567ZM14.4047 22.5301V21.2795H13.1541V22.5301H14.4047ZM16.906 22.5301V21.2795H15.6553V22.5301H16.906ZM15.03 3.1454C15.1932 3.1454 15.3389 3.2442 15.4859 3.38552C15.7197 3.61001 15.9317 3.94267 16.1262 4.35538C16.7965 5.77421 17.2186 8.06596 17.2186 10.6492C17.2174 13.3605 16.7471 15.8568 15.958 17.2562C15.796 17.5445 15.6141 18.1685 15.5772 18.7082L15.5002 19.8131C15.4959 19.8819 15.4815 19.9601 15.4659 20.0289H14.5942C14.5785 19.9601 14.5642 19.8819 14.5598 19.8131L14.4829 18.7082C14.446 18.1685 14.264 17.5445 14.1021 17.2562C13.3129 15.8568 12.8427 13.3605 12.8414 10.6492C12.8414 8.06596 13.2635 5.77421 13.9338 4.35538C14.1283 3.94267 14.3403 3.61001 14.5742 3.38552C14.7211 3.2442 14.8668 3.1454 15.03 3.1454ZM17.0504 3.42054C17.8883 4.92629 18.4692 7.59761 18.4692 10.6492V10.6498C18.468 13.6163 17.9108 16.3395 17.0479 17.8709C16.9447 18.0529 16.8484 18.4531 16.8247 18.7945L16.7484 19.8994C16.7452 19.9438 16.7409 19.987 16.7365 20.0289H17.2186C17.3931 20.0289 17.5444 19.905 17.5782 19.7337L17.7989 18.6288C17.9171 18.0391 18.4455 17.3456 18.9576 17.0305C21.1612 15.6779 22.5294 13.2692 22.5338 10.6485C22.5338 7.20491 20.2132 4.30286 17.0504 3.42054Z" fill="#3451C1"/>
<path fill-rule="evenodd" clip-rule="evenodd" d="M6.1975 19.4585C6.18185 19.4416 6.1662 19.426 6.14935 19.411C5.69785 19.0158 5.11445 18.7782 4.47788 18.7782C3.0603 18.7782 1.89847 19.9613 1.89847 21.4357C1.89847 22.9102 3.0603 24.0933 4.47788 24.0933H7.2136C8.41545 24.0933 9.4022 23.0922 9.4022 21.8422C9.4022 20.5922 8.41545 19.5911 7.2136 19.5911C6.94475 19.5911 6.6871 19.6411 6.44885 19.7324L6.1975 19.4585ZM5.3014 20.3314L5.85545 20.9342C6.07055 21.1687 6.4276 21.2037 6.6846 21.0162C6.8347 20.9067 7.01665 20.8417 7.2136 20.8417C7.7389 20.8417 8.1516 21.2963 8.1516 21.8422C8.1516 22.3881 7.7389 22.8427 7.2136 22.8427H4.47788C3.73688 22.8427 3.14909 22.2061 3.14909 21.4357C3.14909 20.6654 3.73688 20.0288 4.47788 20.0288C4.78866 20.0288 5.07445 20.142 5.29955 20.3302L5.3014 20.3314Z" fill="#3451C1"/>
<path fill-rule="evenodd" clip-rule="evenodd" d="M25.5002 15.172L25.3583 15.3208C25.2063 15.2758 25.045 15.2514 24.8787 15.2514C23.9357 15.2514 23.1591 16.0343 23.1591 17.0148C23.1591 17.9953 23.9357 18.7782 24.8787 18.7782H26.794C27.8877 18.7782 28.7869 17.8677 28.7869 16.7303C28.7869 15.5929 27.8877 14.6824 26.794 14.6824C26.3013 14.6824 25.8492 14.8656 25.5002 15.172ZM26.3482 16.0925C26.4713 15.9931 26.6258 15.933 26.794 15.933C27.2105 15.933 27.5363 16.2963 27.5363 16.7303C27.5363 17.1643 27.2105 17.5276 26.794 17.5276H24.8787C24.6129 17.5276 24.4097 17.2912 24.4097 17.0148C24.4097 16.7384 24.6129 16.5021 24.8787 16.5021C24.9756 16.5021 25.065 16.5339 25.1382 16.5877C25.3952 16.7759 25.7522 16.7403 25.968 16.5064L26.3463 16.0937L26.3482 16.0925Z" fill="#3451C1"/>
<path d="M7.29754 13.7559C7.64304 13.7559 7.92309 13.4758 7.92309 13.1303C7.92309 12.7848 7.64304 12.5048 7.29754 12.5048C6.95204 12.5048 6.67194 12.7848 6.67194 13.1303C6.67194 13.4758 6.95204 13.7559 7.29754 13.7559Z" fill="#3451C1"/>
</svg>
