<svg width="30" height="31" viewBox="0 0 30 31" fill="none" xmlns="http://www.w3.org/2000/svg">
<path fill-rule="evenodd" clip-rule="evenodd" d="M28.1841 16.1675C28.1841 16.5746 27.9209 16.9354 27.5332 17.0598C26.6409 17.3256 25.9955 18.156 25.9955 19.1359C25.9955 20.1157 26.6409 20.9461 27.5288 21.2244C27.9109 21.3476 28.1704 21.7028 28.1704 22.1042C28.1841 22.5313 28.1841 23.0634 28.1841 23.513C28.1841 24.0308 27.7639 24.451 27.2462 24.451C23.161 24.451 6.94415 24.451 2.85899 24.451C2.34123 24.451 1.92102 24.0308 1.92102 23.513C1.92102 23.0634 1.92102 22.5313 1.92102 22.1042C1.92102 21.6971 2.18428 21.3363 2.57197 21.2119C3.46429 20.9461 4.10962 20.1157 4.10962 19.1359C4.10962 18.156 3.4643 17.3256 2.57635 17.0473C2.19429 16.9241 1.93478 16.5689 1.93478 16.1675C1.92102 15.8673 1.92102 15.5259 1.92102 15.2258C1.92102 14.8187 2.18428 14.4579 2.57197 14.3335C3.46429 14.0677 4.10962 13.2373 4.10962 12.2574C4.10962 11.2775 3.4643 10.4471 2.57635 10.1689C2.19429 10.0457 1.93478 9.69046 1.93478 9.28901C1.92102 8.86196 1.92102 8.32981 1.92102 7.88021C1.92102 7.36246 2.34123 6.94226 2.85899 6.94226H27.2462C27.7639 6.94226 28.1841 7.36246 28.1841 7.88021V9.28901C28.1841 9.69611 27.9209 10.0569 27.5332 10.1814C26.6409 10.4471 25.9955 11.2775 25.9955 12.2574C25.9955 13.2373 26.6409 14.0677 27.5288 14.346C27.9109 14.4691 28.1704 14.8243 28.1704 15.2258C28.1841 15.5259 28.1841 15.8673 28.1841 16.1675Z" fill="#DFEAFA"/>
<path fill-rule="evenodd" clip-rule="evenodd" d="M16.0819 12.3841C16.2545 12.1188 16.55 11.959 16.8666 11.959C17.1832 11.959 17.4786 12.1188 17.6512 12.3841C17.8178 12.6381 17.9784 12.8846 18.0975 13.067C18.2233 13.2592 18.4155 13.3986 18.6371 13.4589C18.8474 13.5155 19.1308 13.5924 19.4241 13.6723C19.7301 13.7544 19.9728 13.9858 20.0708 14.2873C20.1688 14.5881 20.1077 14.9182 19.9095 15.1647C19.7188 15.4013 19.5341 15.6305 19.3977 15.8001C19.2537 15.9787 19.1806 16.2048 19.1919 16.4347C19.2025 16.6518 19.2168 16.9458 19.2318 17.2488C19.2477 17.5654 19.103 17.8676 18.8467 18.0538C18.5912 18.24 18.258 18.2845 17.9625 18.1714C17.6784 18.0636 17.4032 17.9588 17.2005 17.8812C16.9849 17.7998 16.7482 17.7998 16.5327 17.8812C16.3299 17.9588 16.0548 18.0636 15.7706 18.1714C15.4752 18.2845 15.142 18.24 14.8865 18.0538C14.6302 17.8676 14.4855 17.5654 14.5013 17.2488C14.5164 16.9458 14.5307 16.6518 14.5413 16.4347C14.5526 16.2048 14.4795 15.9787 14.3355 15.8001C14.1991 15.6305 14.0144 15.4013 13.8237 15.1647C13.6255 14.9182 13.5644 14.5881 13.6624 14.2873C13.7604 13.9858 14.0031 13.7544 14.3091 13.6723C14.6023 13.5924 14.8857 13.5155 15.096 13.4589C15.3176 13.3986 15.5098 13.2592 15.6357 13.067C15.7548 12.8846 15.9153 12.6381 16.0819 12.3841Z" fill="white"/>
<path fill-rule="evenodd" clip-rule="evenodd" d="M11.3006 23.8258C11.6458 23.8258 11.9259 24.1059 11.9259 24.4511C11.9259 24.7962 11.6458 25.0764 11.3006 25.0764C10.9555 25.0764 10.6753 24.7962 10.6753 24.4511C10.6753 24.1059 10.9555 23.8258 11.3006 23.8258ZM26.3081 7.56762H27.2461C27.4187 7.56762 27.5588 7.70767 27.5588 7.88027V9.28912C27.5588 9.42042 27.4762 9.53737 27.3537 9.58237C26.2024 9.92752 25.3702 10.9956 25.3702 12.2575C25.3702 13.5168 26.2 14.5843 27.3418 14.9426C27.4613 14.9813 27.545 15.0964 27.545 15.2258C27.545 15.2358 27.545 15.2452 27.5457 15.2546C27.5588 15.5454 27.5588 15.8768 27.5588 16.1675C27.5588 16.2989 27.4762 16.4158 27.3537 16.4608C26.2024 16.806 25.3702 17.874 25.3702 19.1359C25.3702 20.3953 26.2 21.4627 27.3418 21.821C27.4613 21.8598 27.545 21.9748 27.545 22.1043V22.1249C27.5588 22.5457 27.5588 23.0697 27.5588 23.5131C27.5588 23.6857 27.4187 23.8258 27.2461 23.8258H13.1766C12.8314 23.8258 12.5513 24.1059 12.5513 24.4511C12.5513 24.7962 12.8314 25.0764 13.1766 25.0764H27.2461C28.1097 25.0764 28.8094 24.3767 28.8094 23.5131C28.8094 23.0591 28.8094 22.522 28.7957 22.0893C28.7907 21.4245 28.3573 20.8343 27.7201 20.6292C27.7189 20.6292 27.7176 20.6285 27.7164 20.6279C27.0816 20.429 26.6208 19.8356 26.6208 19.1359C26.6208 18.4399 27.0773 17.8484 27.7113 17.6595C27.7157 17.6583 27.7201 17.657 27.7245 17.6552C28.371 17.4476 28.8094 16.8466 28.8094 16.1675C28.8094 15.863 28.8094 15.5166 28.7957 15.2108C28.7887 14.5442 28.3561 13.9552 27.7201 13.7507C27.7189 13.7507 27.7176 13.7501 27.7164 13.7495C27.0816 13.5506 26.6208 12.9572 26.6208 12.2575C26.6208 11.5615 27.0773 10.97 27.7113 10.7811C27.7157 10.7799 27.7201 10.7786 27.7245 10.7767C28.371 10.5691 28.8094 9.96817 28.8094 9.28912V7.88027C28.8094 7.01672 28.1097 6.31702 27.2461 6.31702H26.3081C25.963 6.31702 25.6828 6.59712 25.6828 6.94232C25.6828 7.28747 25.963 7.56762 26.3081 7.56762ZM8.7994 23.8258V22.2575C8.7994 21.9123 8.51925 21.6322 8.1741 21.6322C7.8289 21.6322 7.5488 21.9123 7.5488 22.2575V23.8258H2.85893C2.68635 23.8258 2.54628 23.6857 2.54628 23.5131V22.1043C2.54628 21.973 2.62882 21.856 2.75138 21.811C3.90258 21.4658 4.73487 20.3978 4.73487 19.1359C4.73487 17.8765 3.90508 16.8091 2.76326 16.4508C2.64383 16.412 2.56004 16.297 2.56004 16.1675C2.56004 16.1575 2.56003 16.1482 2.55941 16.1388C2.54627 15.848 2.54628 15.5166 2.54628 15.2258C2.54628 15.0945 2.62882 14.9776 2.75138 14.9326C3.90258 14.5874 4.73487 13.5194 4.73487 12.2575C4.73487 10.9981 3.90508 9.93067 2.76326 9.57237C2.64383 9.53362 2.56004 9.41852 2.56004 9.28912C2.56004 9.28222 2.56004 9.27537 2.56004 9.26847C2.54628 8.84762 2.54628 8.32362 2.54628 7.88027C2.54628 7.70767 2.68635 7.56762 2.85893 7.56762H7.5488V9.75122C7.5488 10.0964 7.8289 10.3765 8.1741 10.3765C8.51925 10.3765 8.7994 10.0964 8.7994 9.75122V7.56762H24.4322C24.7774 7.56762 25.0576 7.28747 25.0576 6.94232C25.0576 6.59712 24.7774 6.31702 24.4322 6.31702C24.4322 6.31702 6.27315 6.31702 2.85893 6.31702C1.99538 6.31702 1.29565 7.01672 1.29565 7.88027C1.29565 8.33427 1.29565 8.87142 1.30941 9.30412C1.31441 9.96882 1.74776 10.5591 2.38495 10.7642C2.3862 10.7642 2.38745 10.7649 2.3887 10.7655C3.02339 10.9643 3.48425 11.5577 3.48425 12.2575C3.48425 12.9534 3.02777 13.545 2.3937 13.7338C2.38932 13.7351 2.38495 13.7363 2.38057 13.7382C1.734 13.9458 1.29565 14.5467 1.29565 15.2258C1.29565 15.5304 1.29565 15.8768 1.30941 16.1826C1.31629 16.8491 1.74901 17.4382 2.38495 17.6427C2.3862 17.6427 2.38745 17.6433 2.3887 17.6439C3.02339 17.8428 3.48425 18.4362 3.48425 19.1359C3.48425 19.8319 3.02777 20.4234 2.3937 20.6123C2.38932 20.6135 2.38495 20.6148 2.38057 20.6167C1.734 20.8243 1.29565 21.4252 1.29565 22.1043V23.5131C1.29565 24.3767 1.99538 25.0764 2.85893 25.0764H9.4247C9.7699 25.0764 10.05 24.7962 10.05 24.4511C10.05 24.1059 9.7699 23.8258 9.4247 23.8258H8.7994ZM7.5488 17.255V19.7562C7.5488 20.1014 7.8289 20.3815 8.1741 20.3815C8.51925 20.3815 8.7994 20.1014 8.7994 19.7562V17.255C8.7994 16.9098 8.51925 16.6297 8.1741 16.6297C7.8289 16.6297 7.5488 16.9098 7.5488 17.255ZM7.5488 12.2525V14.7537C7.5488 15.0989 7.8289 15.379 8.1741 15.379C8.51925 15.379 8.7994 15.0989 8.7994 14.7537V12.2525C8.7994 11.9073 8.51925 11.6272 8.1741 11.6272C7.8289 11.6272 7.5488 11.9073 7.5488 12.2525Z" fill="#3451C1"/>
<path fill-rule="evenodd" clip-rule="evenodd" d="M15.6113 12.1604L15.1649 12.8437C15.1226 12.9078 15.0585 12.9545 14.9846 12.9741L14.1973 13.1876C13.6875 13.3256 13.2826 13.7117 13.1189 14.2139C12.956 14.7154 13.0571 15.2659 13.3881 15.6769L13.9002 16.3127C13.9485 16.3722 13.9726 16.4476 13.9688 16.5238L13.9281 17.339C13.9025 17.8661 14.1438 18.3714 14.5706 18.6814C14.9982 18.9913 15.5525 19.0652 16.0457 18.8774L16.8081 18.5871C16.8805 18.5599 16.9589 18.5599 17.0306 18.5871L17.7938 18.8774C18.287 19.0652 18.8412 18.9913 19.2688 18.6814C19.6957 18.3714 19.937 17.8661 19.9113 17.339L19.8706 16.5238C19.8668 16.4476 19.891 16.3722 19.9392 16.3127L20.4513 15.6769C20.7824 15.2659 20.8834 14.7154 20.7205 14.2139C20.5569 13.7117 20.1519 13.3256 19.6421 13.1876L18.8548 12.9741C18.7809 12.9545 18.7168 12.9078 18.6746 12.8437L18.2281 12.1604C17.9401 11.7185 17.4476 11.4523 16.9197 11.4523C16.3918 11.4523 15.8994 11.7185 15.6113 12.1604ZM16.658 12.8444C16.7161 12.7562 16.8141 12.7027 16.9197 12.7027C17.0253 12.7027 17.1233 12.7562 17.1814 12.8444L17.6278 13.5277C17.8375 13.8489 18.158 14.0812 18.5275 14.1815L19.3156 14.3949C19.4174 14.4228 19.4981 14.4997 19.5305 14.6C19.5637 14.7003 19.5433 14.8104 19.477 14.8926L18.9649 15.5284C18.7251 15.827 18.6022 16.2033 18.6218 16.5864L18.6618 17.4009C18.667 17.5064 18.6188 17.6075 18.5336 17.6693C18.4483 17.7319 18.3375 17.7463 18.2387 17.7085L17.4763 17.4182C17.1173 17.2825 16.7221 17.2825 16.3632 17.4182L15.6008 17.7085C15.502 17.7463 15.3911 17.7319 15.3059 17.6693C15.2207 17.6075 15.1724 17.5064 15.1777 17.4009L15.2177 16.5864C15.2373 16.2033 15.1143 15.827 14.8745 15.5284L14.3625 14.8926C14.2961 14.8104 14.2758 14.7003 14.3089 14.6C14.3414 14.4997 14.4221 14.4228 14.5239 14.3949L15.3119 14.1815C15.6814 14.0812 16.002 13.8489 16.2116 13.5277L16.658 12.8444Z" fill="#3451C1"/>
</svg>
