<svg width="180" height="105" viewBox="0 0 180 105" fill="none" xmlns="http://www.w3.org/2000/svg">
<path fill-rule="evenodd" clip-rule="evenodd" d="M90.3528 5.03788V13.3583H91.4014V14.884H91.0519C120.778 33.7531 104.108 39.6112 107.605 43.3613C101.894 43.2424 96.1805 43.2424 90.3528 43.3613H72.863C75.0785 39.2586 57.8266 33.868 88.6025 14.884H88.2516V13.3583H89.3029V5.50686C89.0703 5.50686 88.8377 5.50686 88.6025 5.50686C87.32 5.50686 86.1558 4.68652 85.688 3.39732C86.2714 3.98512 86.9718 4.21764 87.7878 4.21764C89.5355 4.21764 91.0519 2.8122 91.0519 1.05276C91.0519 0.698755 90.9349 0.232479 90.8193 0C91.517 0.58384 91.8666 1.40277 91.8666 2.22701C91.8666 3.39733 91.2831 4.4514 90.3528 5.03788ZM32.2936 50.6263C32.6418 49.9249 29.8456 49.1006 34.9729 45.9384C39.8703 49.1006 37.1897 50.0424 37.7718 50.6263C35.9059 50.6263 34.1595 50.6263 32.2936 50.6263ZM32.061 56.0169H37.6549V52.967H32.061V56.0169ZM33.1096 55.3155H34.1596V53.5534H33.1096V55.3155ZM35.6733 55.3155H36.6063V53.5534H35.6733V55.3155ZM34.3922 55.3155H35.3238V53.5534H34.3922V55.3155ZM31.3594 52.6182H38.4735V52.033H31.3594V52.6182ZM31.3594 51.5654H38.4735V50.9776H31.3594V51.5654ZM31.3594 56.9521H38.4735V56.4845H31.3594V56.9521ZM31.3594 57.6562H38.4735V57.1886H31.3594V57.6562ZM31.9441 57.7737H37.7718V72.3076H31.9441V57.7737ZM37.7718 73.2468V85.7862H31.9441V73.2468H37.7718ZM37.7718 86.7213V94.4592H44.6495V58.598L56.1919 56.2521V94.4605H56.6571V49.9262H58.1748V49.4547H71.6988V45.3519H108.073V48.7519V49.4533H122.06V49.9249H123.227V94.4592H123.926V55.6642L135.118 58.8318V94.4592H142.696V86.7213H148.408V94.4592H158.784V81.9185H168.112V94.4592H180V97.6201H0V94.4592H12.2415V81.9185H21.6841V94.4592H31.9441V86.7213H37.7718ZM21.2177 23.2003C20.6342 22.1489 25.1821 20.8611 16.9037 15.8231C8.86049 20.7422 13.2901 22.2651 12.3571 23.2003C15.2717 23.2003 18.3032 23.2003 21.2177 23.2003ZM21.4529 31.991H12.4741V27.0666H21.4529V31.991ZM19.8182 30.9382H18.3031V28.126H19.8182V30.9382ZM15.6212 30.9382H14.1061V28.126H15.6212V30.9382ZM17.721 30.9382H16.2046V28.126H17.721V30.9382ZM22.8484 26.8355H11.1916V25.5476H22.8484V26.8355ZM22.8484 24.9624H11.1916V23.7921H22.8484V24.9624ZM22.8484 33.5166H11.1916V32.3463H22.8484V33.5166ZM22.8484 34.6883H11.1916V33.8679H22.8484V34.6883ZM180 105H0V98.6756H180V105ZM21.6855 34.9234H12.2428V58.4764H21.6855V34.9234ZM159.136 23.2003C159.834 22.1489 155.171 20.8611 163.565 15.8231C171.606 20.7422 167.178 22.2651 168.112 23.2003C165.082 23.2003 162.165 23.2003 159.136 23.2003ZM167.996 31.991V27.0666H169.279V25.5476H157.618V27.0666H158.902V31.991H157.618V33.399V33.5166V34.9221H158.784V58.4751H168.112V34.9221H169.279V33.5166V33.399V31.991H167.996ZM160.651 30.9382H162.165V28.126H160.651V30.9382ZM164.732 30.9382H166.362V28.126H164.732V30.9382ZM162.747 30.9382H164.266V28.126H162.747V30.9382ZM157.618 25.3112H169.279V23.7921H157.618V25.3112ZM168.112 60.0034V80.274H158.784V60.0034H168.112ZM73.9143 94.4592H105.974V51.9155H73.9143V94.4592ZM148.177 50.6263C147.827 49.9249 150.623 49.1006 145.496 45.9384C140.482 49.1006 143.279 50.0424 142.699 50.6263C144.561 50.6263 146.31 50.6263 148.177 50.6263ZM148.409 56.0169H142.814V52.967H148.409V56.0169ZM147.242 55.3155H146.31V53.5534H147.242V55.3155ZM144.794 55.3155H143.864V53.5534H144.794V55.3155ZM145.961 55.3155H145.028V53.5534H145.961V55.3155ZM149.107 52.7357H141.998V52.033H149.107V52.7357ZM149.107 51.5654H141.998V50.9776H149.107V51.5654ZM149.107 56.9521H141.998V56.3682H149.107V56.9521ZM149.107 57.7737H148.409V72.3076H142.697V57.7737H141.998V57.1898H149.107V57.7737ZM142.697 73.2468V85.7862H148.409V73.2468H142.697ZM12.2428 60.0034V80.274H21.6855V60.0034H12.2428ZM53.0448 82.2686V90.9403L47.1015 91.0579V82.9713C47.1015 81.4483 49.8977 78.9861 50.0146 78.9861C50.1303 78.9861 53.0448 80.7456 53.0448 82.2686ZM53.0448 67.7373V76.2928L47.1015 76.9955V68.4387C47.1015 66.7955 49.8977 64.3373 50.0146 64.3373C50.1303 64.2197 53.0448 65.9779 53.0448 67.7373ZM127.307 82.2686V90.9403L133.253 91.0579V82.9713C133.253 81.4483 130.34 78.9861 130.224 78.9861C130.106 78.9861 127.307 80.7456 127.307 82.2686ZM127.307 67.7373V76.2928L133.253 76.9955V68.4387C133.253 66.7955 130.34 64.3373 130.224 64.3373C130.106 64.2197 127.307 65.9779 127.307 67.7373ZM109.819 48.7519C110.522 47.4627 104.923 45.9397 115.184 39.7262H115.068H114.719V39.2585H115.068V37.1491C114.953 37.1491 114.835 37.1491 114.719 37.1491C114.368 37.1491 113.902 36.7977 113.785 36.4437C113.902 36.5613 114.251 36.6789 114.488 36.6789C115.068 36.6789 115.534 36.2113 115.534 35.7397C115.534 35.6261 115.534 35.5085 115.419 35.391C115.652 35.5085 115.767 35.7397 115.767 36.0924C115.767 36.4437 115.652 36.6776 115.419 36.9166V39.2573H115.652V39.7249H115.419H115.185C124.978 45.7059 119.849 47.579 120.781 48.7506L109.819 48.7519ZM92.9165 69.6103V76.2928H99.6798V69.3778C99.6798 65.394 90.4697 60.0034 90.0019 60.0034C89.5355 60.0034 80.3254 65.394 80.3254 69.3778V76.2928H86.9718V69.6103C86.9718 68.4387 89.7694 66.7955 90.0019 66.7955C90.1163 66.7968 92.9165 68.44 92.9165 69.6103ZM92.9165 84.4916V91.0579H86.9705V84.4916C86.9705 83.2024 89.7681 81.5659 90.0007 81.5659C90.1163 81.5659 92.9165 83.2038 92.9165 84.4916ZM99.6798 78.6374H80.3254V91.0579H77.5291V55.4331H102.36V91.0579H99.6798V78.6374ZM62.1392 71.1334H64.4716V75.5861H62.1392V71.1334ZM62.1392 86.6025H64.4716V91.0579H62.1392V86.6025ZM115.649 86.6025H117.98V91.0579H115.649V86.6025ZM115.649 71.1334H117.98V75.5861H115.649V71.1334ZM60.0407 52.2656H62.1392V55.4331H60.0407V52.2656ZM118.331 52.2656H120.545V55.4331H118.331V52.2656ZM114.833 52.2656H116.932V55.4331H114.833V52.2656ZM111.218 52.2656H113.318V55.4331H111.218V52.2656ZM67.2679 52.2656H69.3677V55.4331H67.2679V52.2656ZM63.6543 52.2656H65.7528V55.4331H63.6543V52.2656ZM112.503 78.2834H115.765C115.067 78.6374 114.367 79.2213 114.017 79.4538C113.318 80.0389 112.386 81.0983 112.386 82.151V91.5268H121.364V82.151C121.364 81.0983 120.314 80.0389 119.614 79.4538C119.381 79.2213 118.564 78.6374 117.865 78.2834H121.364V77.3482H112.503V78.2834ZM58.8739 62.3441H62.8383C62.1392 62.6981 60.8567 63.7521 60.5072 63.9872C59.8055 64.5737 58.7569 65.6252 58.7569 66.6819V76.0551H67.7344V66.6819C67.7344 65.6252 66.6858 64.5737 65.9854 63.9872C65.6359 63.6345 64.4716 62.6967 63.6543 62.3441H67.7357V61.4089H58.8752V62.3441H58.8739ZM58.8739 78.2834H62.2549C61.5545 78.6374 60.7398 79.2213 60.5072 79.4538C59.8055 80.0389 58.7569 81.0983 58.7569 82.151V91.5268H67.7344V82.151C67.7344 81.0983 66.8027 80.0389 65.9854 79.4538C65.7528 79.2213 65.0537 78.6374 64.3547 78.2834H67.7357V77.3482H58.8752V78.2834H58.8739ZM112.27 62.3441H116.467C115.649 62.6981 114.367 63.6345 114.133 63.9872C113.318 64.5737 112.386 65.6252 112.386 66.6819V76.0551H121.364V66.6819C121.364 65.6252 120.314 64.5737 119.614 63.9872C119.264 63.7521 117.982 62.6967 117.283 62.3441H121.013V61.4089H112.27V62.3441ZM65.1681 35.391C65.4033 35.5085 65.5189 35.7397 65.5189 36.0924C65.5189 36.4437 65.4033 36.6776 65.1681 36.9166V39.2573H65.5189V39.7249H65.1681H64.9355H64.8198H64.4703V39.2573H64.8198V37.1478C64.7029 37.1478 64.5859 37.1478 64.4703 37.1478C64.1195 37.1478 63.7699 36.7964 63.536 36.4424C63.7713 36.56 64.0025 36.6775 64.2364 36.6775C64.8198 36.6775 65.285 36.2099 65.285 35.7384C65.2863 35.6261 65.2863 35.5085 65.1681 35.391ZM64.9368 39.7249C74.729 45.7059 69.7173 47.579 70.532 48.7506H59.5729C60.3903 47.4627 54.6769 45.9397 64.9368 39.7249Z" fill="white"/>
</svg>
