<svg width="24" height="24" viewBox="0 0 24 24" fill="none" xmlns="http://www.w3.org/2000/svg">
<path d="M2.50011 12C2.50011 7.52166 2.50011 5.28249 3.89135 3.89124C5.28259 2.5 7.52176 2.5 12.0001 2.5C16.4784 2.5 18.7176 2.5 20.1089 3.89124C21.5001 5.28249 21.5001 7.52166 21.5001 12C21.5001 16.4783 21.5001 18.7175 20.1089 20.1088C18.7176 21.5 16.4784 21.5 12.0001 21.5C7.52176 21.5 5.28259 21.5 3.89135 20.1088C2.50011 18.7175 2.50011 16.4783 2.50011 12Z" stroke="white" stroke-width="1.5" stroke-linecap="round" stroke-linejoin="round"/>
<path d="M7.00011 17L11.1937 12.8065M17.0001 7L12.8066 11.1935M12.8066 11.1935L9.77788 7H7.00011L11.1937 12.8065M12.8066 11.1935L17.0001 17H14.2223L11.1937 12.8065" stroke="white" stroke-width="1.5" stroke-linecap="round" stroke-linejoin="round"/>
</svg>
