<svg width="18" height="18" viewBox="0 0 18 18" fill="none" xmlns="http://www.w3.org/2000/svg">
<path d="M17.5616 0.727889L17.1484 3.72089C16.074 3.63889 15.2889 3.85756 14.7931 4.37689C14.2972 4.89622 13.9942 5.59322 13.884 6.46789C13.7738 7.34256 13.7463 8.28556 13.8014 9.29689H17.5616V17.9479H10.4956V7.65689C10.4956 5.14222 11.1292 3.25622 12.3964 1.99889C13.6912 0.741557 15.4129 0.31789 17.5616 0.727889ZM7.06597 0.727889L6.65275 3.72089C5.57839 3.63889 4.79329 3.85756 4.29743 4.37689C3.80157 4.89622 3.49855 5.59322 3.38836 6.46789C3.27817 7.34256 3.25062 8.28556 3.30571 9.29689H7.06597V17.9479H0V7.65689C0 5.14222 0.633595 3.25622 1.90079 1.99889C3.19552 0.741557 4.91725 0.31789 7.06597 0.727889Z" fill="white"/>
</svg>
